<svg xmlns="http://www.w3.org/2000/svg" > 

<!-- skills -->
<g id="js">
        <path d="M2.25488 0H117.745V120H2.25488V0Z" fill="#F7DF1E"/>
    <path d="M32.6203 100.28L41.4584 94.7229C43.1635 97.8641 44.7145 100.522 48.435 100.522C52.0012 100.522 54.2496 99.0723 54.2496 93.4342V55.0913H65.1028V93.5936C65.1028 105.274 58.5136 110.59 48.9002 110.59C40.2181 110.59 35.1783 105.918 32.6201 100.28" fill="#1F2626"/>
    <path d="M71 99.0724L79.837 93.756C82.1633 97.7035 85.1868 100.603 90.5357 100.603C95.0326 100.603 97.9003 98.2669 97.9003 95.0448C97.9003 91.1783 94.9545 89.8088 89.9929 87.5541L87.2803 86.345C79.4499 82.8819 74.2555 78.5322 74.2555 69.3492C74.2555 60.8913 80.4574 54.4469 90.1483 54.4469C97.048 54.4469 102.01 56.9442 105.575 63.469L97.125 69.1073C95.2644 65.6438 93.2493 64.2747 90.1485 64.2747C86.9699 64.2747 84.9542 66.369 84.9542 69.1073C84.9542 72.4905 86.9699 73.8602 91.6209 75.9547L94.334 77.1629C103.56 81.2713 108.754 85.4595 108.754 94.8836C108.754 105.034 101.079 110.591 90.7685 110.591C80.6904 110.591 74.1782 105.597 71.0002 99.0724" fill="#1F2626"/>
</g>

<g id="ts">
        <path d="M0 60V120H60H120V60V0H60H0V60Z" fill="#007ACC"/>
    <path d="M26.5375 60.3979L26.4994 65.3122H34.309H42.1185L42.1185 87.5026V109.693H47.6423H53.1661V87.5026L53.1661 65.3122H60.9756H68.7852V60.4931C68.7852 57.8264 68.728 55.5979 68.6518 55.5407C68.5947 55.4645 59.0899 55.4264 47.5661 55.4455L26.5947 55.5026L26.5375 60.3979Z" fill="white"/>
    <path d="M96.8265 55.3636C99.8741 56.1255 102.198 57.4779 104.331 59.6874C105.436 60.8684 107.074 63.0208 107.207 63.535C107.246 63.6874 102.026 67.1922 98.8646 69.1541C98.7503 69.2303 98.2931 68.7351 97.7789 67.9731C96.236 65.7255 94.6169 64.7541 92.1408 64.5827C88.5027 64.335 86.1598 66.2398 86.1789 69.4208C86.1789 70.3541 86.3122 70.9065 86.6931 71.6684C87.4931 73.3255 88.9789 74.316 93.6455 76.3351C102.236 80.0303 105.912 82.4684 108.198 85.935C110.75 89.8017 111.322 95.9731 109.588 100.564C107.684 105.554 102.96 108.945 96.3122 110.068C94.255 110.43 89.3789 110.373 87.1693 109.973C82.3503 109.116 77.7789 106.735 74.9598 103.611C73.855 102.392 71.7027 99.2112 71.836 98.9827C71.8931 98.9065 72.3884 98.6017 72.9408 98.2779C73.4741 97.9731 75.4931 96.8112 77.3979 95.7065L80.8455 93.7065L81.5693 94.7731C82.5789 96.316 84.7884 98.4303 86.1217 99.135C89.9503 101.154 95.2074 100.868 97.7979 98.5446C98.9027 97.535 99.3598 96.4874 99.3598 94.9446C99.3598 93.5541 99.1884 92.9446 98.4646 91.897C97.5312 90.5636 95.6265 89.4398 90.2169 87.097C84.0265 84.4303 81.3598 82.7731 78.9217 80.1446C77.5122 78.6208 76.1789 76.1827 75.6265 74.1446C75.1693 72.4493 75.055 68.2017 75.4169 66.4874C76.6931 60.5065 81.2074 56.335 87.7217 55.097C89.836 54.697 94.7503 54.8493 96.8265 55.3636Z" fill="white"/>
</g>

<g id="mongoDB">
        <path d="M84.7407 47.7544C78.7204 19.869 66.1563 12.4436 62.9681 7.19463C61.2353 4.33931 59.4685 0 59.4685 0C59.2957 2.47333 58.9895 4.03976 56.9792 5.91949C52.9535 9.68719 35.8453 24.3238 34.4083 56.0098C33.0681 85.5523 55.0868 103.772 58.0132 105.655C60.2485 106.809 62.9865 105.677 64.2952 104.619C74.9067 96.9681 89.4235 76.5686 84.7276 47.7544" fill="#10AA50"/>
    <path d="M60.3802 89.9189C59.8279 97.2345 59.43 101.491 58.0244 105.663C58.0244 105.663 58.951 112.624 59.5949 120H61.8905C62.4385 114.805 63.2749 109.648 64.3955 104.556C61.422 103.025 60.4927 96.3358 60.3802 89.9189Z" fill="#B8C4C2"/>
    <path d="M64.3941 104.561C61.3891 103.104 60.5201 96.2809 60.3866 89.9189C61.127 79.43 61.341 68.9075 61.0279 58.395C60.8709 52.8795 61.1064 7.30163 59.7349 0.62915C60.2898 1.93452 61.6299 5.00144 62.9701 7.19171C66.1714 12.4434 78.725 19.8689 84.7401 47.757C89.428 76.497 74.9976 96.8607 64.3941 104.561Z" fill="#12924F"/>
</g>

<g id="postgresql">
        <path d="M117.889 71.8826C117.189 69.7638 115.357 68.2881 112.987 67.9339C111.869 67.7671 110.589 67.8382 109.075 68.1504C106.435 68.695 104.477 68.9024 103.048 68.9425C108.442 59.8342 112.829 49.4475 115.354 39.6702C119.438 23.8605 117.256 16.6581 114.706 13.4004C107.957 4.77748 98.1117 0.145172 86.2338 0.00343171C79.8974 -0.0740469 74.3349 1.177 71.4331 2.07667C68.7314 1.59995 65.8264 1.33378 62.7783 1.28456C57.0645 1.19341 52.016 2.43899 47.7023 4.99898C45.3141 4.19138 41.4812 3.0529 37.0549 2.32642C26.6445 0.617335 18.2541 1.94906 12.1168 6.28467C4.68528 11.5341 1.24022 20.6547 1.87736 33.3931C2.07972 37.4374 4.3421 49.7429 7.90429 61.413C9.95155 68.1208 12.1346 73.691 14.3929 77.9706C17.5955 84.039 21.0223 87.6126 24.8694 88.896C27.0255 89.6143 30.9432 90.1174 35.0637 86.6856C35.586 87.3182 36.2829 87.9467 37.2076 88.5305C38.3821 89.2711 39.8182 89.8763 41.2524 90.235C46.4212 91.5271 51.2627 91.2039 55.3932 89.3928C55.4187 90.1274 55.4383 90.8293 55.4547 91.4355C55.4821 92.4185 55.5094 93.3825 55.5454 94.284C55.7902 100.379 56.2049 105.119 57.4336 108.435C57.5011 108.617 57.5918 108.895 57.6875 109.19C58.3005 111.067 59.3255 114.209 61.9333 116.669C64.6337 119.218 67.9001 120 70.8917 120C72.392 120 73.8235 119.803 75.0791 119.534C79.5547 118.575 84.6377 117.114 88.3148 111.878C91.7913 106.928 93.4812 99.4736 93.787 87.7274C93.8267 87.3952 93.8631 87.078 93.8982 86.7758L93.9712 86.1551L94.7902 86.2271L95.0012 86.2412C99.5596 86.449 105.134 85.4824 108.557 83.8922C111.262 82.6371 119.93 78.0608 117.889 71.8826Z" fill="#1F2626"/>
    <path d="M110.095 73.0839C96.541 75.88 95.609 71.291 95.609 71.291C109.92 50.0559 115.902 23.1011 110.74 16.5041C96.6554 -1.49149 72.2747 7.01931 71.8678 7.23989L71.7369 7.26359C69.0589 6.70757 66.0623 6.37669 62.6938 6.32154C56.5612 6.22128 51.9088 7.92945 48.3785 10.6066C48.3785 10.6066 4.88568 -7.31104 6.90878 33.141C7.33902 41.7466 19.2434 98.2563 33.442 81.1878C38.6317 74.9462 43.6464 69.669 43.6464 69.669C46.1367 71.3234 49.1182 72.1674 52.2438 71.8643L52.4867 71.6583C52.4111 72.4331 52.4457 73.191 52.5838 74.0884C48.9259 78.1752 50.001 78.8926 42.6889 80.3979C35.2896 81.9229 39.6362 84.6374 42.4742 85.3474C45.9147 86.2075 53.874 87.4261 59.252 79.8975L59.0378 80.7566C60.4706 81.9047 61.477 88.2233 61.3083 93.9517C61.1397 99.6796 61.0271 103.612 62.156 106.684C63.2859 109.756 64.4111 116.667 74.0239 114.608C82.0557 112.887 86.2182 108.426 86.7974 100.985C87.2081 95.6958 88.1383 96.4779 88.1966 91.7485L88.9427 89.5099C89.8027 82.3394 89.0794 80.026 94.0275 81.1021L95.2307 81.2078C98.8722 81.3732 103.639 80.6217 106.437 79.3214C112.462 76.5258 116.035 71.8575 110.094 73.0839H110.095Z" fill="#336791"/>
    <path d="M50.9251 36.9892C49.7036 36.8192 48.5975 36.9765 48.0379 37.4003C47.7234 37.6387 47.6259 37.9149 47.5994 38.1049C47.5292 38.6085 47.882 39.1654 48.0989 39.4526C48.7124 40.2656 49.6084 40.8244 50.4953 40.9475C50.6238 40.9657 50.7519 40.9739 50.879 40.9739C52.358 40.9739 53.7029 39.8222 53.8214 38.9722C53.9695 37.9076 52.4241 37.1979 50.9251 36.9897" fill="white"/>
    <path d="M91.3863 37.0233C91.2696 36.1888 89.7848 35.9509 88.3756 36.1469C86.9682 36.3429 85.6037 36.9782 85.7176 37.8145C85.8088 38.4649 86.9832 39.5751 88.3733 39.5751C88.4909 39.5751 88.6094 39.5673 88.7288 39.5505C89.6567 39.422 90.3376 38.8327 90.6612 38.4931C91.1534 37.9754 91.4387 37.3984 91.3863 37.0233Z" fill="white"/>
    <path d="M114.606 72.7665C114.089 71.2037 112.426 70.701 109.662 71.2716C101.456 72.9652 98.5173 71.7921 97.5525 71.0815C103.931 61.3648 109.178 49.619 112.009 38.6604C113.349 33.4693 114.09 28.6483 114.151 24.7188C114.218 20.406 113.483 17.2366 111.968 15.3006C105.86 7.49576 96.8953 3.30918 86.0437 3.19433C78.5834 3.11047 72.2803 5.01963 71.0584 5.55651C68.4852 4.91663 65.68 4.52377 62.626 4.47364C57.0257 4.38294 52.1846 5.72378 48.1767 8.45695C46.4357 7.80886 41.9365 6.2643 36.4341 5.37786C26.9216 3.84652 19.3624 5.00687 13.9681 8.82839C7.53144 13.3887 4.55991 21.5403 5.13553 33.0564C5.32923 36.9308 7.53691 48.8497 11.0207 60.2642C15.6065 75.2877 20.5916 83.7926 25.8364 85.5422C26.4503 85.7469 27.1581 85.89 27.9388 85.89C29.8521 85.89 32.1979 85.0277 34.6385 82.0935C37.6153 78.5225 40.6946 75.0381 43.8726 71.6448C45.9344 72.7514 48.1995 73.3694 50.5161 73.4314C50.5207 73.492 50.5266 73.5526 50.5321 73.6128C50.1333 74.0883 49.7428 74.5707 49.3608 75.0598C47.7556 77.0975 47.4215 77.5218 42.2546 78.5856C40.7848 78.8891 36.8812 79.6935 36.8238 82.4299C36.7618 85.4196 41.4384 86.6752 41.9711 86.8083C43.8279 87.2732 45.6167 87.5024 47.3226 87.5024C51.4714 87.5024 55.1224 86.1388 58.0402 83.5004C57.9504 94.1588 58.3948 104.661 59.6745 107.861C60.7228 110.481 63.2832 116.883 71.3711 116.882C72.5579 116.882 73.8641 116.744 75.3011 116.436C83.7421 114.627 87.4078 110.896 88.8256 102.671C89.5845 98.2751 90.8866 87.7786 91.4991 82.1482C92.7916 82.5516 94.4556 82.7361 96.2545 82.7357C100.006 82.7357 104.335 81.9386 107.05 80.6784C110.1 79.2619 115.604 75.7863 114.606 72.7665ZM94.5044 34.7199C94.4766 36.3821 94.2478 37.8911 94.0053 39.4662C93.7442 41.1602 93.4743 42.9117 93.4064 45.0378C93.3394 47.1069 93.5979 49.2581 93.8476 51.3386C94.3526 55.5407 94.8708 59.8667 92.865 64.1353C92.5318 63.545 92.235 62.9348 91.9763 62.3082C91.727 61.7039 91.1855 60.7331 90.4358 59.3896C87.5194 54.1593 80.6899 41.9113 84.186 36.9135C85.2274 35.4259 87.8704 33.8964 94.5044 34.7199ZM86.463 6.56009C96.1861 6.77475 103.877 10.4121 109.323 17.3706C113.499 22.708 108.9 46.9939 95.5863 67.9455C95.4524 67.7752 95.3178 67.6055 95.1825 67.4364L95.0139 67.2258C98.4544 61.5439 97.7817 55.9222 97.1828 50.938C96.9367 48.8926 96.7043 46.9606 96.7635 45.1458C96.8246 43.2225 97.0789 41.5727 97.325 39.9775C97.6272 38.0118 97.9348 35.9778 97.8501 33.5801C97.9134 33.3285 97.9389 33.0313 97.9057 32.6786C97.6892 30.3793 95.064 23.4978 89.7134 17.2695C86.7866 13.8627 82.5184 10.0503 76.6907 7.4789C79.1973 6.95933 82.6251 6.47486 86.463 6.56009ZM32.0557 79.946C29.3667 83.1791 27.51 82.5593 26.8993 82.356C22.9205 81.0289 18.3037 72.6193 14.2333 59.2838C10.7113 47.745 8.65306 36.1419 8.4899 32.8882C7.97581 22.5982 10.4702 15.4268 15.9041 11.573C24.7476 5.30175 39.2872 9.05536 45.1295 10.9591C45.0457 11.042 44.9582 11.1195 44.8752 11.2038C35.2879 20.8859 35.5153 37.428 35.539 38.4393C35.5381 38.8295 35.5709 39.3818 35.6156 40.1416C35.7806 42.924 36.0878 48.1023 35.2674 53.9665C34.5054 59.416 36.1853 64.7497 39.8756 68.6004C40.2543 68.9948 40.6524 69.3702 41.0683 69.7252C39.4257 71.4844 35.8558 75.3748 32.0557 79.946ZM42.3006 66.2765C39.3264 63.1728 37.9755 58.8559 38.594 54.4314C39.4599 48.2367 39.1404 42.8415 38.9686 39.9429C38.9445 39.5373 38.923 39.1818 38.9107 38.9015C40.3113 37.6595 46.8017 34.1821 51.4304 35.2427C53.5423 35.7262 54.8294 37.1646 55.3645 39.6384C58.1336 52.4466 55.7309 57.7848 53.8003 62.0749C53.4024 62.9586 53.0264 63.794 52.7056 64.6581L52.4567 65.3262C51.8269 67.0153 51.2408 68.5858 50.8775 70.077C47.7155 70.0679 44.6396 68.7171 42.3006 66.276V66.2765ZM42.786 83.5497C41.8627 83.319 41.0323 82.9184 40.5451 82.5862C40.9521 82.3948 41.6763 82.1341 42.9323 81.8752C49.0107 80.6242 49.9496 79.7409 51.9996 77.1381C52.4695 76.541 53.0023 75.8647 53.7401 75.0407L53.741 75.0398C54.8399 73.8092 55.3426 74.018 56.2541 74.3962C56.9929 74.7016 57.7125 75.6277 58.0042 76.6468C58.1423 77.1281 58.2972 78.0414 57.79 78.7524C53.5077 84.7483 47.2675 84.6713 42.786 83.5497ZM74.5974 113.152C67.1613 114.745 64.5283 110.951 62.7933 106.614C61.6735 103.813 61.1229 91.1863 61.5135 77.2415C61.5185 77.056 61.4921 76.8769 61.441 76.7083C61.3954 76.3753 61.3259 76.046 61.2332 75.723C60.6526 73.6939 59.2375 71.9967 57.5398 71.293C56.8653 71.0136 55.6274 70.5009 54.1398 70.8815C54.457 69.5743 55.0071 68.0981 55.6037 66.4998L55.8539 65.8276C56.1356 65.0696 56.4893 64.2844 56.863 63.4531C58.8833 58.9648 61.6502 52.8171 58.6473 38.9288C57.5225 33.7268 53.7661 31.1864 48.0719 31.7766C44.6583 32.1299 41.535 33.5071 39.9772 34.297C39.6422 34.4665 39.3359 34.6306 39.0497 34.7901C39.4845 29.5489 41.1271 19.7538 47.2716 13.5564C51.1405 9.65513 56.2928 7.72819 62.5704 7.83211C74.9397 8.03446 82.8716 14.3822 87.3481 19.6722C91.2056 24.2302 93.2943 28.822 94.1279 31.2986C87.859 30.6609 83.5954 31.8983 81.4342 34.9884C76.7321 41.7099 84.0065 54.7554 87.5026 61.0253C88.1438 62.1742 88.6971 63.1673 88.8712 63.5894C90.0097 66.3485 91.4836 68.1907 92.5596 69.5351C92.8896 69.9472 93.2096 70.3468 93.4529 70.696C91.5543 71.2433 88.1438 72.508 88.4546 78.8298C88.204 82.0019 86.4215 96.8532 85.5159 102.1C84.3205 109.032 81.7696 111.614 74.5974 113.152V113.152ZM105.636 77.6321C103.695 78.5331 100.446 79.209 97.3592 79.3544C93.9502 79.5139 92.2146 78.9725 91.8063 78.6393C91.6149 74.6998 93.081 74.2882 94.6329 73.8525C94.8767 73.7842 95.1146 73.7172 95.3443 73.637C95.487 73.7532 95.6433 73.8685 95.8147 73.9815C98.5547 75.7899 103.442 75.985 110.341 74.5608L110.417 74.5457C109.486 75.4158 107.894 76.5834 105.636 77.6321Z" fill="white"/>
</g>

<g id="jest">
        <path d="M107.525 59.083C107.525 52.9145 102.524 47.9135 96.3553 47.9135C95.9581 47.9135 95.567 47.9348 95.1809 47.9756L110.522 2.72803H45.327L60.647 47.936C60.421 47.9218 60.1945 47.9144 59.968 47.9139C53.7995 47.9139 48.7986 52.914 48.7986 59.0834C48.7986 64.0695 52.0665 68.2911 56.5764 69.7273C54.1945 73.8533 51.197 77.5697 47.7939 80.7807C43.1662 85.146 37.8702 88.4565 32.1422 90.496C25.3223 86.9926 22.102 79.2012 25.0077 72.3698C25.3359 71.5981 25.6709 70.8162 25.9911 70.0377C30.9317 68.8846 34.6137 64.4555 34.6137 59.1633C34.6137 52.9944 29.6128 47.9939 23.4439 47.9939C17.2749 47.9939 12.2744 52.9944 12.2744 59.1633C12.2744 62.9461 14.1562 66.2876 17.0334 68.3081C14.2689 74.6024 10.2051 81.1901 8.93887 88.8251C7.4214 97.9749 8.93377 107.688 16.8476 113.173C35.2783 125.947 55.2847 105.254 76.3786 100.052C84.0234 98.1671 92.4151 98.4707 99.1504 94.5701C104.208 91.6406 107.543 86.7855 108.489 81.3351C109.424 75.9507 108.061 70.5896 104.927 66.2425C106.608 64.2361 107.528 61.7009 107.525 59.083Z" fill="#99425B"/>
    <path d="M105.802 80.8682C104.98 85.6005 102.058 89.7336 97.7837 92.2094C93.7993 94.5169 89.025 95.2057 83.9696 95.9344C81.2617 96.3247 78.4614 96.7291 75.7258 97.4034C68.4927 99.187 61.4866 102.667 54.7118 106.032C41.1528 112.767 29.4434 118.583 18.4023 110.931C10.3146 105.325 10.6879 94.9544 11.6301 89.2715C12.5034 84.006 14.8644 79.1569 17.1472 74.4676C17.5361 73.6706 17.9219 72.8721 18.3045 72.0721C19.4553 72.5321 20.6627 72.835 21.8943 72.9726C19.5703 80.6424 23.2251 88.9819 30.8958 92.9225L31.946 93.462L33.0574 93.0662C39.1217 90.9063 44.7099 87.4411 49.6662 82.7645C52.8699 79.7419 55.6246 76.3979 57.8887 72.8247C58.577 72.9285 59.2722 72.9807 59.9683 72.9807C67.0088 72.9807 72.8389 67.7174 73.7411 60.9197C76.623 60.8142 79.6838 60.8134 82.5823 60.9188C83.4837 67.7174 89.3146 72.9811 96.3551 72.9811C99.299 72.9811 102.03 72.0585 104.279 70.4913C105.841 73.6882 106.424 77.2852 105.802 80.8682ZM23.4445 50.7217C28.0994 50.7217 31.886 54.5088 31.886 59.1637C31.886 60.8355 31.3954 62.3946 30.5531 63.7076C29.15 65.896 26.7648 67.396 24.0245 67.5831C23.8327 67.5958 23.6393 67.6052 23.4445 67.6052C22.4071 67.6052 21.4135 67.416 20.4946 67.0724C18.6442 66.3766 17.0946 65.0568 16.1132 63.3406C15.3844 62.0692 15.0015 60.6291 15.0026 59.1637C15.0026 54.5088 18.7897 50.7217 23.4445 50.7217ZM51.5272 59.0833C51.5272 54.8541 54.6535 51.3425 58.7157 50.7353C59.1247 50.6737 59.5431 50.6418 59.9687 50.6418C62.675 50.6418 65.0845 51.9237 66.6296 53.9102C67.0166 54.4055 67.3471 54.9424 67.6151 55.511C68.1398 56.6287 68.4113 57.8485 68.4102 59.0833C68.4102 59.7581 68.3286 60.4141 68.1785 61.0434C67.3558 64.4873 64.419 67.12 60.8203 67.4823C60.5406 67.5104 60.2565 67.5248 59.9687 67.5248C58.345 67.5262 56.7558 67.0563 55.3938 66.1723C53.0697 64.6668 51.5272 62.0523 51.5272 59.0833ZM86.7597 49.0448C84.9227 50.7983 83.6006 53.021 82.9369 55.4723C79.7551 55.355 76.57 55.355 73.3882 55.4723C72.6739 52.8226 71.1934 50.4849 69.2015 48.7094L77.9368 31.0466L86.7597 49.0453V49.0448ZM49.1322 5.45675H106.717L93.1161 45.5703C92.5309 45.7104 91.9556 45.8887 91.3937 46.1039L77.958 18.6956L64.4841 45.9402C63.8967 45.7386 63.2964 45.5768 62.6873 45.4559L49.1322 5.45675ZM104.797 59.0837C104.797 59.9298 104.67 60.747 104.438 61.5187C103.886 63.3355 102.74 64.9144 101.184 66.0023C99.7694 66.9949 98.0831 67.5268 96.3551 67.5252C92.4575 67.5252 89.1696 64.8691 88.2027 61.2721C88.0107 60.5585 87.9135 59.8227 87.9136 59.0837C87.9136 57.9298 88.1466 56.8294 88.5675 55.8269C88.7847 55.3139 89.0522 54.8237 89.366 54.3634C90.8852 52.121 93.4486 50.6422 96.3551 50.6422C96.6217 50.6422 96.8844 50.6558 97.1451 50.6805C101.431 51.0797 104.797 54.695 104.797 59.0837H104.797ZM110.253 59.0837C110.253 52.2987 105.364 46.6375 98.9253 45.4283L114.328 0H41.5223L56.9486 45.5201C50.7334 46.9032 46.0713 52.4573 46.0713 59.0833C46.0713 64.0588 48.7006 68.4287 52.6412 70.8846C50.7457 73.7086 48.4982 76.366 45.9225 78.7963C41.8374 82.6497 37.2867 85.5724 32.3805 87.4955C27.4387 84.3913 25.3498 78.537 27.519 73.4374L27.6891 73.0377L28.008 72.2877C33.4358 70.3943 37.3419 65.2284 37.3419 59.1637C37.3419 51.5002 31.1075 45.2658 23.4445 45.2658C15.7811 45.2658 9.54671 51.5002 9.54671 59.1637C9.54671 63.0315 11.1369 66.5342 13.6956 69.0563C13.2184 70.0674 12.7339 71.0751 12.2423 72.0793C9.90258 76.8843 7.25116 82.3304 6.24817 88.3786C4.25663 100.39 7.46928 109.992 15.2947 115.415C20.0431 118.706 24.8655 120 29.7181 120C38.8552 120 48.0985 115.409 57.1391 110.919C63.6499 107.685 70.3826 104.341 77.0328 102.701C79.5074 102.091 82.0534 101.723 84.749 101.335C90.0948 100.563 95.6221 99.7662 100.518 96.9306C106.194 93.6431 110.079 88.1286 111.178 81.8019C112.121 76.3702 110.986 70.9301 108.218 66.316C109.552 64.1395 110.256 61.636 110.253 59.0833L110.253 59.0837Z" fill="white"/>
</g>

<g id="express">
    <path d="M37.2184 73.389V47.1348H38.6425V51.2646C38.8106 51.0815 38.9659 50.887 39.1073 50.6824C40.2967 48.2148 42.8053 46.6574 45.5441 46.6882C48.791 46.5914 51.4295 47.7933 52.98 50.6824C53.9667 52.4773 54.5097 54.4822 54.5636 56.5297C54.6175 58.5771 54.1808 60.6078 53.2899 62.4521C51.8453 65.6899 48.2772 67.2996 44.4572 66.7084C43.2684 66.6073 42.1239 66.2101 41.1281 65.553C40.1322 64.8959 39.3169 63.9998 38.7564 62.9465V73.3878L37.2184 73.389ZM38.6425 56.422L38.9615 59.5048C39.5243 63.0138 41.5988 65.0872 44.856 65.4768C46.3856 65.7283 47.955 65.4416 49.2968 64.6654C50.6386 63.8893 51.6698 62.6718 52.2144 61.2206C53.4813 58.2015 53.3879 54.7838 51.9638 51.8354C51.3825 50.5344 50.3935 49.4581 49.1464 48.7689C47.8992 48.0797 46.4616 47.8153 45.0508 48.0154C43.7266 48.1118 42.4652 48.6181 41.4419 49.4642C40.4187 50.3102 39.6843 51.454 39.3408 52.7365C39.0376 53.9502 38.8044 55.1804 38.6425 56.4209V56.422ZM83.6409 59.9902C83.4249 61.8387 82.5449 63.5459 81.1646 64.7942C79.7842 66.0425 77.9974 66.7471 76.1366 66.7767C70.1646 67.0775 67.362 63.1117 66.9166 58.5353C66.6068 56.0501 67.0102 53.5281 68.0797 51.2635C68.8241 49.71 70.0438 48.4338 71.5619 47.6198C73.0801 46.8058 74.8181 46.4963 76.5239 46.736C78.1456 46.8739 79.6829 47.5183 80.9182 48.5779C82.1535 49.6376 83.0243 51.059 83.4073 52.6408C83.7107 54.0818 83.934 55.5385 84.0761 57.0042H68.3919C68.1014 61.1534 70.3309 64.4891 73.4912 65.2934C77.4273 66.2618 80.7916 64.5563 82.0129 60.8139C82.284 59.8535 82.7785 59.7179 83.6511 59.9902H83.6409ZM68.3805 55.6758H82.4093C82.3216 51.2555 79.5692 48.0428 75.8358 48.0063C71.6206 47.938 68.5639 51.0219 68.3805 55.6758ZM86.5403 60.087H87.9154C87.9659 61.1001 88.2949 62.0796 88.8661 62.9177C89.4373 63.7559 90.2287 64.4203 91.1531 64.8377C92.3139 65.3601 93.5775 65.614 94.8499 65.5804C96.1224 65.5469 97.3708 65.2268 98.5025 64.644C99.1193 64.3663 99.6361 63.9059 99.9828 63.325C100.33 62.7441 100.49 62.0708 100.441 61.396C100.477 60.7452 100.299 60.1006 99.9354 59.5599C99.5715 59.0192 99.0413 58.6119 98.425 58.3998C96.9121 57.837 95.3034 57.5271 93.762 57.0327C92.1581 56.576 90.5897 56.0026 89.0694 55.3169C86.5858 54.1048 86.432 49.3837 89.2437 47.889C90.6834 47.0766 92.3036 46.6376 93.9565 46.6122C95.6094 46.5867 97.2424 46.9755 98.7064 47.7432C100.522 48.7457 101.526 50.7702 101.228 52.8242H100.048C100.048 52.7673 99.9414 52.7171 99.9414 52.659C99.7955 48.8995 96.6352 47.7238 93.2425 48.0542C92.2172 48.1681 91.2454 48.478 90.334 48.936C89.7861 49.1862 89.3296 49.6005 89.0275 50.1215C88.7254 50.6426 88.5928 51.2447 88.6479 51.8445C88.649 52.4447 88.8361 53.0298 89.1833 53.5194C89.5305 54.0091 90.0209 54.3791 90.5869 54.5787C92.0679 55.1221 93.6401 55.4707 95.1724 55.8968L98.875 56.8652C99.7166 57.1414 100.454 57.6666 100.991 58.3712C101.528 59.0759 101.838 59.9269 101.88 60.8116C102.177 62.7996 101.163 64.7534 99.3695 65.6591C96.1317 67.491 90.7988 67.0069 88.4235 64.6907C87.2079 63.4683 86.53 61.8084 86.5437 60.0859L86.5403 60.087ZM119.328 52.8254H118.038C118.038 52.6511 117.97 52.4836 117.951 52.3503C117.93 51.3836 117.578 50.4534 116.953 49.7156C116.328 48.9778 115.468 48.4773 114.518 48.298C112.726 47.7839 110.814 47.876 109.079 48.56C108.393 48.7563 107.79 49.1693 107.358 49.7373C106.926 50.3053 106.69 50.9978 106.685 51.7112C106.66 52.4117 106.878 53.0991 107.302 53.6573C107.726 54.2155 108.33 54.6102 109.011 54.7746L114.906 56.2876C115.543 56.4405 116.171 56.6314 116.785 56.8595C118.665 57.543 119.941 59.2884 119.998 61.2832C120.026 62.2597 119.758 63.2218 119.23 64.0432C118.701 64.8647 117.936 65.507 117.036 65.8858C115.668 66.5073 114.185 66.8361 112.682 66.8512C111.18 66.8663 109.691 66.5674 108.31 65.9735C107.175 65.4841 106.217 64.6586 105.565 63.6081C104.914 62.5577 104.599 61.3329 104.665 60.0984H105.925C106.399 62.3826 107.967 64.2852 110.119 65.1852C112.272 66.0852 114.729 65.8642 116.686 64.5973C117.273 64.2919 117.761 63.8247 118.091 63.2509C118.421 62.677 118.579 62.0207 118.548 61.3596C118.577 60.7083 118.393 60.0653 118.024 59.5281C117.654 58.9909 117.12 58.5887 116.502 58.3827C114.989 57.8199 113.38 57.5203 111.839 57.0156C110.226 56.5659 108.648 55.999 107.118 55.3192C104.693 54.1264 104.5 49.4441 107.263 47.9505C108.721 47.104 110.373 46.6493 112.058 46.6305C113.743 46.6117 115.405 47.0296 116.881 47.8434C117.725 48.3472 118.405 49.0857 118.837 49.9688C119.269 50.8519 119.435 51.8416 119.314 52.8174L119.328 52.8254ZM34.875 66.3028C34.3673 66.4948 33.807 66.4942 33.2997 66.3014C32.7924 66.1085 32.3732 65.7366 32.1214 65.2558L27.1086 58.3234L26.3818 57.3551L20.5647 65.2661C20.3276 65.7261 19.9312 66.0842 19.4494 66.2733C18.9676 66.4624 18.4335 66.4696 17.9467 66.2937L25.4408 56.2397L18.4685 47.1553C19.5029 46.7816 20.6559 47.1872 21.2312 48.1237L26.4262 55.1415L31.652 48.151C31.8908 47.6988 32.2876 47.3502 32.7667 47.1714C33.2458 46.9927 33.774 46.9963 34.2506 47.1815L31.5449 50.7713L27.8799 55.5414C27.7782 55.6322 27.6968 55.7435 27.6411 55.868C27.5854 55.9924 27.5565 56.1273 27.5565 56.2637C27.5565 56.4 27.5854 56.5349 27.6411 56.6593C27.6968 56.7838 27.7782 56.8951 27.8799 56.9859L34.8601 66.3028H34.875ZM66.6944 47.0585V48.4256C65.7138 48.3612 64.7306 48.5033 63.8083 48.8424C62.886 49.1816 62.0451 49.7104 61.3398 50.3946C60.6345 51.0789 60.0805 51.9034 59.7135 52.8151C59.3466 53.7267 59.1749 54.7051 59.2095 55.6872C59.2095 58.8802 59.2095 62.0731 59.2095 65.2661V66.3518H57.823V47.1439H59.1901V51.08C60.8671 48.2091 63.4555 47.1439 66.7035 47.0664L66.6944 47.0585ZM0.00227889 56.1144L0.612921 53.0988C2.28991 47.1359 9.12545 44.6546 13.8283 48.3481C16.5819 50.5104 17.2689 53.5739 17.1344 57.0258H1.62116C1.37053 63.1915 5.81933 66.9146 11.5099 65.0143C13.3851 64.3307 14.7967 62.7722 15.2615 60.8355C15.5623 59.8671 16.059 59.7008 16.9681 59.9811C16.8165 61.1615 16.3992 62.2921 15.7476 63.2881C15.096 64.284 14.2271 65.1192 13.2063 65.7309C11.5197 66.6533 9.58459 67.0187 7.67775 66.775C5.77091 66.5313 3.98995 65.6909 2.58953 64.374C1.2042 62.8167 0.367981 60.848 0.205067 58.7689C0.205067 58.4271 0.0911409 58.1081 0.0113928 57.8005C0.00379779 57.2256 0 56.6635 0 56.1144H0.00227889ZM1.64053 55.6974H15.6693C15.5816 51.2281 12.7608 48.0576 8.99899 48.028C4.81108 47.971 1.81484 51.0721 1.63028 55.6781L1.64053 55.6974Z" fill="#1F2626"/>
</g>

<g id="docker">
    <path d="M117.523 49.7463C114.821 47.8713 108.628 47.1681 103.787 48.1056C103.224 43.4181 100.634 39.3171 96.1307 35.6842L93.5413 33.8092L91.7394 36.5046C89.488 40.0202 88.3621 44.9421 88.6996 49.6296C88.8121 51.2697 89.375 54.1994 91.0639 56.7775C89.488 57.715 86.2227 58.8869 81.9444 58.8869H0.541279L0.316279 59.8244C-0.472159 64.5114 -0.472159 79.1594 8.76034 90.4089C15.741 98.9632 26.0994 103.299 39.7227 103.299C69.2211 103.299 91.0639 89.1194 101.31 63.4567C105.363 63.5739 114.033 63.4567 118.424 54.6677C118.536 54.4333 118.761 53.9646 119.549 52.2072L120 51.2697L117.523 49.7463ZM65.6183 16.7008H53.2339V28.4191H65.6183V16.7008ZM65.6183 30.7628H53.2339V42.4811H65.6183V30.7624V30.7628ZM50.9816 30.7628H38.5972V42.4811H50.9816V30.7624V30.7628ZM36.3449 30.7628H23.96V42.4811H36.3449V30.7624V30.7628ZM21.7082 44.8249H9.32331V56.5432H21.7077V44.8244L21.7082 44.8249ZM36.3449 44.8249H23.96V56.5432H36.3449V44.8244V44.8249ZM50.9816 44.8249H38.5972V56.5432H50.9816V44.8244V44.8249ZM65.6188 44.8249H53.2335V56.5432H65.6188V44.8244V44.8249ZM80.2555 44.8249H67.8702V56.5432H80.2555V44.8244V44.8249Z" fill="#2396ED"/>
</g>

<g  id="reactJs">
    <path fill="#00D8FF" d="M97.858625 41.613375000000005c-1.2189999999999999 -0.4195 -2.482 -0.8165 -3.7824999999999998 -1.191875 0.21375000000000002 -0.8723749999999999 0.40987500000000004 -1.7335 0.5843750000000001 -2.579875 2.86325 -13.8985 0.991125 -25.095375 -5.4015 -28.781775 -6.1297500000000005 -3.5348125 -16.154375 0.1508 -26.278875 8.961775 -0.9735 0.84725 -1.949875 1.744375 -2.92575 2.6845000000000003 -0.65025 -0.622 -1.2993750000000002 -1.223125 -1.947 -1.7981249999999998 -10.610625 -9.421275 -21.24625 -13.391537499999998 -27.632625 -9.694424999999999 -6.123875 3.5450500000000003 -7.937374999999999 14.07105 -5.360125 27.2428 0.248875 1.27225 0.539875 2.5715 0.8688750000000001 3.8925 -1.50525 0.42725 -2.9583749999999998 0.8828750000000001 -4.348875 1.367375C9.1947125 46.053375 1.25 52.85075 1.25 59.901375c0 7.281874999999999 8.528649999999999 14.585749999999999 21.485875 19.0145 1.0225 0.34950000000000003 2.0835 0.679875 3.176875 0.9936250000000001 -0.354875 1.42875 -0.663625 2.82875 -0.92275 4.19425 -2.4575 12.943125 -0.538375 23.2205 5.56925 26.74325 6.3085 3.6378749999999997 16.896 -0.10149999999999999 27.205625 -9.11325 0.8147500000000001 -0.712375 1.632625 -1.4678749999999998 2.45175 -2.259625 1.0618750000000001 1.0225 2.122125 1.99025 3.176625 2.897875 9.986 8.593375 19.84875 12.06325 25.95075 8.530750000000001 6.302250000000001 -3.6483749999999997 8.350375 -14.688625 5.69125 -28.121000000000002 -0.20299999999999999 -1.025875 -0.43937499999999996 -2.073875 -0.70475 -3.140625 0.7435 -0.21975 1.473375 -0.44675 2.185125 -0.682625C109.985875 74.4955 118.75 67.28049999999999 118.75 59.901375c0 -7.076124999999999 -8.200875 -13.919250000000002 -20.891375 -18.288Zm-2.9216249999999997 32.5805c-0.6425000000000001 0.21275 -1.3017500000000002 0.418375 -1.9735 0.617625 -1.487125 -4.70775 -3.4941250000000004 -9.713625 -5.950125000000001 -14.88575 2.34375 -5.04875 4.273125 -9.99075 5.718625 -14.668000000000001 1.201875 0.347875 2.3685 0.71475 3.49275 1.101875 10.873124999999998 3.743125 17.50575 9.277375 17.50575 13.541749999999999 0 4.54225 -7.163 10.43875 -18.7935 14.292499999999999Zm-4.825875 9.56275c1.17575 5.9396249999999995 1.34375 11.309625 0.564875 15.50775 -0.69975 3.772125 -2.107125 6.287125 -3.84725 7.294375 -3.7030000000000003 2.143375 -11.621749999999999 -0.642625 -20.161875000000002 -7.99175 -0.979125 -0.8423750000000001 -1.9652500000000002 -1.742 -2.9545 -2.694 3.310875 -3.6209999999999996 6.61975 -7.830500000000001 9.849250000000001 -12.505625 5.68025 -0.5041249999999999 11.046750000000001 -1.328125 15.9135 -2.453125 0.239625 0.9668749999999999 0.4525 1.915125 0.636 2.8423749999999997ZM41.308375 106.188375c-3.6178749999999997 1.27775 -6.49925 1.31425 -8.241 0.31 -3.706375 -2.13775 -5.2471250000000005 -10.3895 -3.1453750000000005 -21.458499999999997 0.240625 -1.267625 0.52725 -2.56975 0.8575 -3.90075 4.81325 1.064375 10.1405 1.83025 15.834375000000001 2.291875 3.2512499999999998 4.574625 6.65575 8.779625 10.086625 12.461374999999999 -0.749625 0.7237499999999999 -1.49625 1.4126250000000002 -2.23875 2.061875 -4.55875 3.9848749999999997 -9.12725 6.812125 -13.153375 8.234125ZM24.359250000000003 74.16612500000001c-5.729375 -1.95825 -10.461 -4.503375 -13.704262499999999 -7.28075 -2.914275 -2.49575 -4.3856375 -4.9735000000000005 -4.3856375 -6.984 0 -4.278625 6.378775 -9.735875 17.017525 -13.445125 1.290875 -0.450125 2.6422499999999998 -0.87425 4.044499999999999 -1.27275 1.4703749999999998 4.782875 3.399125 9.783375 5.726750000000001 14.84 -2.3577500000000002 5.131625 -4.3138749999999995 10.211875 -5.7986249999999995 15.050749999999999 -0.9997499999999999 -0.287375 -1.96825 -0.5898749999999999 -2.9002499999999998 -0.9081250000000001Zm5.681500000000001 -38.673625c-2.20825 -11.28525 -0.7416250000000001 -19.7985 2.94875 -21.934749999999998 3.931 -2.2756875 12.623375 0.969 21.784875 9.103875 0.5856250000000001 0.519875 1.173625 1.064125 1.763125 1.6271250000000002 -3.413875 3.66575 -6.78725 7.839125 -10.009625 12.386875 -5.5261249999999995 0.512125 -10.815874999999998 1.335 -15.679375 2.43675 -0.30575 -1.23 -0.5766249999999999 -2.4385000000000003 -0.80775 -3.6198750000000004Zm50.684125 12.515125000000001c-1.162625 -2.008125 -2.35625 -3.969 -3.573 -5.876125 3.749 0.473875 7.3408750000000005 1.103 10.713999999999999 1.872875 -1.012625 3.2455 -2.274875 6.639 -3.760625 10.117750000000001 -1.0658750000000001 -2.0235 -2.19325 -4.06375 -3.380375 -6.1145000000000005ZM60.056000000000004 27.876125c2.315375 2.5082500000000003 4.6339999999999995 5.30875 6.9145 8.34725 -2.298125 -0.1085 -4.624750000000001 -0.165 -6.9704999999999995 -0.165 -2.323625 0 -4.633 0.05525000000000001 -6.917 0.161875 2.282875 -3.01025 4.621625 -5.807 6.973000000000001 -8.344125Zm-20.801249999999996 20.166249999999998c-1.161375 2.013875 -2.26775 4.043125 -3.3168750000000005 6.0760000000000005 -1.4617499999999999 -3.4666249999999996 -2.71225 -6.8755 -3.73375 -10.167124999999999 3.3525 -0.75025 6.9275 -1.3636249999999999 10.652625 -1.8286250000000002 -1.234 1.9248750000000001 -2.437375 3.9005 -3.6020000000000003 5.9197500000000005Zm3.70925 29.995625c-3.8487500000000003 -0.42937500000000006 -7.4775 -1.0111249999999998 -10.829 -1.74075 1.03775 -3.35025 2.315875 -6.832000000000001 3.8085000000000004 -10.37325 1.0518750000000001 2.031375 2.162625 4.061375 3.3311249999999997 6.079750000000001 1.19025 2.056125 2.423625 4.070125 3.6893749999999996 6.03425Zm17.230875 14.242375000000001c-2.379 -2.566875 -4.752 -5.40625 -7.069625 -8.460374999999999 2.2498750000000003 0.08825 4.5436250000000005 0.133375 6.87475 0.133375 2.395 0 4.7625 -0.054000000000000006 7.092874999999999 -0.157625 -2.288125 3.1091249999999997 -4.598375 5.952875 -6.898 8.484625Zm23.95825 -26.536875000000002c1.5705 3.5795 2.894375 7.043 3.9455 10.33625 -3.40675 0.77725 -7.085125 1.40325 -10.960625 1.868375 1.21975 -1.933 2.4238750000000002 -3.927375 3.607 -5.979 1.197 -2.0755 2.3335 -4.15425 3.408125 -6.225625Zm-7.756125000000001 3.718c-1.83675 3.18475 -3.722375 6.224875 -5.63675 9.094624999999999 -3.4867500000000002 0.24925 -7.088875 0.37775000000000003 -10.76025 0.37775000000000003 -3.6565 0 -7.213374999999999 -0.11362499999999999 -10.638375 -0.335875 -1.9914999999999998 -2.907375 -3.918125 -5.956625 -5.743125 -9.109125 -1.82025 -3.143875 -3.495125 -6.314375 -5.0131250000000005 -9.467125 1.517625 -3.16 3.1885000000000003 -6.334 4.9982500000000005 -9.472249999999999l-0.0005 0.000625c1.814625 -3.1466250000000002 3.7243749999999998 -6.181 5.6975 -9.070125 3.4943750000000002 -0.26425 7.07775 -0.402 10.699125 -0.402 3.63775 0 7.225875 0.138875 10.719375 0.40525 1.942875 2.868125 3.83975 5.892625000000001 5.661375 9.039625000000001 1.842375 3.182375 3.534875 6.335375 5.0653749999999995 9.427624999999999 -1.5260000000000002 3.1453750000000005 -3.214625 6.33 -5.048875000000001 9.511Zm10.35475 -56.053c3.93475 2.269 5.464875 11.420125 2.99275 23.42 -0.15775 0.765625 -0.33525 1.5456249999999998 -0.528125 2.336 -4.874875 -1.124875 -10.168375000000001 -1.9618749999999998 -15.710625 -2.48175 -3.228625 -4.59775 -6.574375 -8.777625 -9.932625 -12.39625 0.9028750000000001 -0.868625 1.8045 -1.696875 2.702375 -2.4783749999999998 8.674625 -7.54925 16.78225 -10.529837500000001 20.47625 -8.399625ZM60 49.409c5.794625 0 10.492375000000001 4.6975 10.492375000000001 10.492375000000001 0 5.794625 -4.69775 10.49225 -10.492375000000001 10.49225s-10.492375000000001 -4.697625 -10.492375000000001 -10.49225c0 -5.794875 4.69775 -10.492375000000001 10.492375000000001 -10.492375000000001Z" stroke-width="1"></path>
</g>

<g id="reactNactive">
        <g clip-path="url(#clip0_1_2463)">
    <path d="M59.9999 63.6073C65.9173 63.6073 70.7142 58.8103 70.7142 52.893C70.7142 46.9757 65.9173 42.1787 59.9999 42.1787C54.0826 42.1787 49.2856 46.9757 49.2856 52.893C49.2856 58.8103 54.0826 63.6073 59.9999 63.6073Z" fill="#F5DE19"/>
    <path d="M60 77.4583C47.122 77.7698 34.2763 76.0339 21.9429 72.3155C16.2455 70.5094 10.9317 67.6643 6.27 63.924C4.49113 62.6463 3.00974 60.9988 1.92747 59.0946C0.845197 57.1905 0.18767 55.0748 0 52.8926C0 45.8083 7.78286 38.8655 20.82 34.3226C33.4831 30.2972 46.714 28.3463 60 28.5455C73.1087 28.3623 86.1623 30.2779 98.6657 34.2197C104.153 35.969 109.286 38.6765 113.829 42.2169C115.577 43.4351 117.036 45.0228 118.103 46.8677C119.169 48.7126 119.817 50.7695 120 52.8926C120 60.2555 111.3 67.7169 97.2857 72.354C85.1911 75.9513 72.6164 77.6728 60 77.4583ZM60 33.6712C47.2891 33.5013 34.6321 35.3559 22.5043 39.1655C10.5043 43.3526 5.12571 49.0783 5.12571 52.8797C5.12571 56.8569 10.9071 63.1097 23.6014 67.4512C35.4003 70.9905 47.6855 72.6381 60 72.3326C72.0703 72.5484 84.1025 70.9152 95.6786 67.4897C108.857 63.1226 114.857 56.8612 114.857 52.8926C114.641 51.5307 114.145 50.2285 113.4 49.0681C112.655 47.9078 111.677 46.9145 110.529 46.1512C106.465 43.0104 101.879 40.6108 96.9814 39.0626C85.0201 35.3073 72.5356 33.4872 60 33.6712Z" fill="#F5DE19"/>
    <path d="M35.6553 106.331C33.656 106.377 31.6803 105.892 29.9295 104.925C23.7924 101.385 21.6667 91.1767 24.2424 77.6124C27.0823 64.6313 32.003 52.1951 38.8138 40.7852C45.2027 29.3385 53.3818 18.9877 63.041 10.1252C67.2974 6.24538 72.2076 3.1504 77.5438 0.983791C79.4739 0.0792446 81.5794 -0.389648 83.711 -0.389648C85.8425 -0.389648 87.948 0.0792446 89.8781 0.983791C96.2595 4.66093 98.3724 15.9238 95.3938 30.3795C92.4662 42.6562 87.6734 54.4114 81.1824 65.2352C75.0184 76.5468 67.0969 86.8074 57.7138 95.6338C53.3029 99.6657 48.1838 102.846 42.6153 105.015C40.3859 105.843 38.0328 106.287 35.6553 106.331ZM43.2538 43.3309C36.7571 54.2566 32.041 66.1468 29.2824 78.5552C26.9124 91.0481 29.1881 98.5609 32.4967 100.472C35.9253 102.457 44.2481 100.575 54.3538 91.7467C63.3111 83.2907 70.872 73.4689 76.7553 62.6466C82.9736 52.2989 87.5711 41.0601 90.3881 29.3209C93.191 15.7138 90.7695 7.38236 87.3324 5.40236C86.0442 4.90876 84.6675 4.6878 83.2895 4.75346C81.9115 4.81911 80.5622 5.16995 79.3267 5.78379C74.5767 7.74385 70.2098 10.5265 66.4267 14.0038C57.1981 22.4929 49.3854 32.4021 43.2838 43.3566L43.2538 43.3309Z" fill="#F5DE19"/>
    <path d="M84.3262 106.387C78.5191 106.387 71.1434 102.872 63.4634 96.2681C53.6349 87.325 45.3175 76.8512 38.8334 65.2524C32.1079 53.9996 27.2262 41.7433 24.3734 28.9481C23.1361 23.3187 22.9068 17.5146 23.6962 11.8052C23.8787 9.68726 24.5236 7.63511 25.5855 5.7935C26.6474 3.95188 28.1003 2.36565 29.8419 1.14666C36.2148 -2.54334 47.0276 1.24951 58.0634 11.0467C67.2373 19.7132 75.0279 29.7354 81.1634 40.7638C87.8846 51.7539 92.8175 63.7418 95.7776 76.2795C97.0681 82.1154 97.2672 88.1397 96.3648 94.0481C96.1501 96.227 95.4667 98.3337 94.3615 100.224C93.2564 102.114 91.7555 103.742 89.9619 104.998C88.2398 105.953 86.2947 106.432 84.3262 106.387ZM43.2691 62.6724C49.4895 73.7571 57.4346 83.7811 66.8062 92.3681C76.4448 100.661 84.0905 102.444 87.3776 100.511C90.8062 98.5181 93.3348 90.3838 90.7291 77.2224C87.8743 65.2521 83.1429 53.8091 76.7105 43.3181C70.8555 32.7629 63.4194 23.1661 54.6605 14.8609C44.2719 5.63808 35.8462 3.57666 32.4134 5.56523C31.3434 6.43472 30.4654 7.51661 29.8347 8.7426C29.204 9.96858 28.8343 11.312 28.7491 12.6881C28.0677 17.7799 28.2896 22.952 29.4048 27.9667C32.1489 40.203 36.8308 51.9221 43.2734 62.6809L43.2691 62.6724Z" fill="#F5DE19"/>
    </g>
    <defs>
    <clipPath id="clip0_1_2463">
    <rect width="120" height="106" fill="white"/>
    </clipPath>
    </defs>
</g>

<g id="styledComponents">
        <g clip-path="url(#clip0_1_2427)">
    <path d="M68.7673 118.279C68.9473 117.872 69.4015 117.589 69.7315 117.246C74.7666 111.967 79.8446 106.735 84.8111 101.391C86.3653 99.9558 87.5662 98.1804 88.32 96.2036C89.0739 94.2269 89.3601 92.1026 89.1563 89.9968C89.0004 89.0951 88.7958 88.2025 88.5435 87.3229C87.1894 88.6084 85.9296 89.7783 84.6611 90.9567C82.6899 92.7908 80.7273 94.6334 78.739 96.4461C77.5665 97.6415 76.059 98.4531 74.4156 98.7737C72.7721 99.0943 71.0701 98.9087 69.5344 98.2416C67.9797 97.6705 66.627 96.6553 65.6443 95.3221C64.6616 93.9889 64.092 92.3965 64.0064 90.7425C63.9604 90.5297 63.8988 90.3206 63.8222 90.1168C62.3095 91.4024 60.8611 92.5851 59.4256 93.8021L29.5877 119.085C29.382 119.261 29.1591 119.479 28.9663 119.65H68.7459L68.6859 119.612C68.4716 119.462 68.583 118.673 68.7673 118.279Z" fill="#FFCEBF"/>
    <path d="M27.1434 118.279C27.4972 117.818 27.9243 117.418 28.4075 117.096L69.6997 82.0642C72.5165 79.6731 75.3205 77.2691 78.1116 74.8522C78.4565 74.6118 78.7267 74.2791 78.8915 73.8924C79.5591 70.9831 79.6537 67.9717 79.17 65.0263C78.7415 65.3262 78.5101 65.4548 78.313 65.6648C74.932 68.6901 71.5681 71.7412 68.1699 74.7494C67.0442 75.8824 65.5882 76.6292 64.0113 76.8825C62.4344 77.1359 60.8177 76.8826 59.3938 76.1592C57.9411 75.4734 56.7253 74.3709 55.9012 72.992C55.077 71.6131 54.6818 70.0201 54.7658 68.4159V67.0275C54.1444 67.4817 53.6902 67.7859 53.266 68.1287C36.7394 81.3615 20.2156 94.5842 3.69472 107.797C2.94909 108.393 2.05777 109.721 1.08074 108.431C0.103713 107.141 1.59068 106.61 2.34059 106.01C19.9528 91.8774 37.5736 77.7576 55.2029 63.6507C58.074 61.3496 58.2625 60.3854 56.3942 56.7301L55.28 57.7757C52.2247 60.6168 49.135 63.4193 46.1268 66.3075C44.8929 67.4978 43.3474 68.3148 41.6689 68.6641C39.9904 69.0135 38.2473 68.8809 36.6409 68.2818C35.0345 67.6827 33.6304 66.6415 32.5905 65.2784C31.5507 63.9153 30.9176 62.2858 30.7644 60.5782C30.1944 61.0067 29.7016 61.3196 29.2345 61.6838L3.09479 81.9443C2.64395 82.3864 2.1298 82.7591 1.56925 83.0498C1.14619 83.1777 0.69189 83.155 0.283691 82.9856V119.671H27.0919C26.9923 119.451 26.945 119.21 26.954 118.969C26.9629 118.727 27.0277 118.491 27.1434 118.279Z" fill="#FFCEBF"/>
    <path d="M99.5652 1.82096C98.8367 4.20782 98.1297 6.59897 97.4912 9.01154C96.9014 10.7164 96.97 12.5802 97.6836 14.2371C98.3971 15.8941 99.704 17.2246 101.348 17.9676C106.376 20.6107 112.042 21.798 117.709 21.3958V2.22806C117.646 1.80781 117.669 1.37914 117.777 0.968207C117.897 0.73576 118.049 0.520916 118.227 0.329712H99.5481C99.8352 0.663958 99.7366 1.25103 99.5652 1.82096Z" fill="#FF6196"/>
    <path d="M62.0512 42.9976C61.9624 45.137 61.214 47.1966 59.9086 48.894C55.2421 54.9179 49.883 60.3719 43.9419 65.1435C42.9839 66.0304 41.7695 66.591 40.4731 66.745C39.1767 66.8989 37.8648 66.6383 36.7256 66.0005C35.5918 65.5161 34.6358 64.6925 33.989 63.6428C33.3421 62.5932 33.0362 61.369 33.1132 60.1384C33.2505 58.627 33.878 57.202 34.9002 56.0803C41.5437 49.7455 48.7416 44.019 56.4076 38.9695C56.9097 38.5758 57.5228 38.3499 58.1603 38.3237C58.7978 38.2976 59.4274 38.4725 59.96 38.8238C60.6601 39.2585 61.2261 39.8786 61.5952 40.6153C61.9643 41.352 62.1222 42.1766 62.0512 42.9976Z" fill="#FF87AF"/>
    <path d="M56.9126 68.97C56.8131 68.0228 56.9347 67.0654 57.2678 66.1731C57.6009 65.2809 58.1365 64.478 58.8324 63.8277C65.3372 57.8281 72.3163 52.3638 79.7013 47.4883C79.9241 47.3468 80.1298 47.2054 80.3741 47.0597C81.0192 46.594 81.8008 46.356 82.5959 46.3832C83.3911 46.4103 84.1546 46.7011 84.7664 47.2097C85.3584 47.7112 85.7772 48.3865 85.9634 49.1396C86.1496 49.8928 86.0936 50.6854 85.8034 51.4049C84.8691 54.5168 83.1448 57.3337 80.7983 59.5811C76.0329 64.2758 71.1753 68.8762 66.2286 73.3795C65.4836 74.1456 64.5051 74.6422 63.4469 74.7911C62.3888 74.9401 61.3111 74.7329 60.3836 74.2022C59.409 73.6958 58.5791 72.9499 57.9719 72.0347C57.3648 71.1194 57.0002 70.0648 56.9126 68.97Z" fill="#FF87AF"/>
    <path d="M87.8344 71.8015C86.6346 73.0871 85.4004 74.3126 84.2477 75.6282C83.9011 76.1367 83.6136 76.683 83.3907 77.2566C84.0249 77.4451 84.7662 77.9422 85.2804 77.7665C87.8987 76.888 90.4527 75.8339 93.3281 74.724C92.7024 76.1638 92.231 77.4922 91.5668 78.7092C88.8305 83.3078 85.4038 87.4587 81.4066 91.0164C79.8868 92.4819 78.3084 93.8832 76.6715 95.2201C75.8046 95.9395 74.7622 96.4157 73.6509 96.6001C72.5396 96.7844 71.3992 96.6702 70.3465 96.2692C69.2938 95.8681 68.3665 95.1947 67.6595 94.3176C66.9525 93.4406 66.4912 92.3916 66.3227 91.2778C66.254 90.6585 66.3087 90.0317 66.4838 89.4337C66.6589 88.8357 66.9507 88.2784 67.3426 87.7939C73.174 81.4614 79.8384 75.9503 87.1531 71.4115C87.242 71.3771 87.3363 71.3582 87.4316 71.3558L87.8344 71.8015Z" fill="#FF87AF"/>
    <path d="M97.6724 54.7335L105.004 22.1659L110.147 23.37L107.494 31.4305C105.017 38.9296 102.51 46.4287 100.093 53.9364C99.6221 55.3248 99.0051 55.5819 97.6724 54.7335Z" fill="#FF6196"/>
    <path d="M89.3857 73.8885C90.1614 70.9274 90.9327 68.1892 91.5841 65.421C92.2189 62.7364 93.4263 60.2207 95.1236 58.0461C96.1649 56.6791 97.3348 57.2234 98.5304 57.519C99.636 57.789 99.9145 58.5989 99.9616 59.6616C100.136 62.6005 99.241 65.5031 97.4419 67.8335C95.3002 70.4887 92.5317 72.5695 89.3857 73.8885Z" fill="#FF6196"/>
    <path d="M119.944 3.83936C120.008 2.88498 119.983 1.92674 119.871 0.976845C119.783 0.711516 119.607 0.483621 119.374 0.329779C119.184 0.175101 118.961 0.0652523 118.723 0.00838844C118.585 -0.0173228 118.393 0.124089 118.208 0.325493C118.03 0.516698 117.878 0.731542 117.758 0.96399C117.65 1.37492 117.627 1.80359 117.69 2.22384V21.3873C112.023 21.7895 106.357 20.6022 101.329 17.9591C99.685 17.2161 98.3781 15.8856 97.6646 14.2286C96.951 12.5717 96.8824 10.7079 97.4722 9.00304C98.1107 6.59046 98.8178 4.19932 99.5462 1.81246C99.7177 1.24253 99.8162 0.655454 99.5462 0.321208C99.3961 0.158494 99.1888 0.0602123 98.9677 0.0469556C98.6847 0.0500088 98.4105 0.146413 98.1878 0.321208C97.8674 0.512888 97.6121 0.796593 97.4551 1.1354C96.598 3.70652 95.8438 6.30336 95.1882 8.9259C94.9407 9.95936 94.874 11.0279 94.9911 12.0841C95.1569 13.9952 95.8676 15.8186 97.0389 17.3377C98.2102 18.8569 99.7928 20.0081 101.599 20.6545C102.409 20.993 102.884 21.3273 102.657 22.3943C102.344 23.7484 102.04 25.1026 101.732 26.461C99.632 35.6656 97.5436 44.8745 95.4667 54.0877C95.4082 54.4985 95.2275 54.8822 94.9482 55.189C93.5793 56.2771 92.4291 57.6148 91.5586 59.1314C90.4493 61.1327 89.6817 63.3052 89.2875 65.5592C89.2118 66.2782 88.952 66.9655 88.5331 67.5548C88.1143 68.144 87.5505 68.6153 86.8963 68.9231C85.1094 69.8273 83.4682 70.9971 81.4841 72.2141C81.6164 69.8282 81.5906 67.4361 81.407 65.0535C81.256 64.3206 81.288 63.5618 81.5003 62.8442C81.7126 62.1267 82.0985 61.4725 82.624 60.9397C85.2375 58.3506 87.1005 55.1015 88.0148 51.538C88.2878 50.712 88.3627 49.8333 88.2333 48.9729C88.104 48.1126 87.774 47.2948 87.27 46.5856C86.7661 45.8764 86.1023 45.2957 85.3325 44.8905C84.5626 44.4853 83.7081 44.267 82.8382 44.2531C81.4298 44.2374 80.047 44.6304 78.8573 45.3844C74.7683 48.1767 70.7504 51.0715 66.8073 54.0663C64.4633 55.8318 62.2564 57.7858 59.9852 59.637C59.8873 59.5319 59.8025 59.4154 59.7324 59.2899C59.689 58.9744 59.604 58.6661 59.4796 58.3729C57.5812 55.4418 58.8968 53.3121 60.958 51.1223C63.1053 48.8714 64.2919 45.8727 64.2661 42.7619C64.3327 41.1769 63.8363 39.6194 62.8649 38.3653C62.3474 37.7286 61.7096 37.2001 60.988 36.8097C59.9629 36.2487 58.7908 36.0145 57.6289 36.1386C56.467 36.2627 55.3708 36.7391 54.4873 37.5039L53.2917 38.361C50.5621 40.315 47.7981 42.2177 45.1713 44.3089C41.3364 47.3705 37.5841 50.5341 33.9183 53.7963C32.2042 55.309 30.953 57.3744 29.1746 58.78C19.9014 66.1034 10.5297 73.294 1.1922 80.5317C0.871132 80.7232 0.575909 80.9551 0.313735 81.2216C0.286745 81.2606 0.263774 81.3023 0.245172 81.3459C0.0480521 81.8044 -0.119071 82.5629 0.112331 82.8414C0.169054 82.9019 0.23761 82.95 0.313735 82.9828C0.721934 83.1523 1.17623 83.175 1.5993 83.0471C2.15985 82.7563 2.67399 82.3837 3.12483 81.9415L29.2646 61.6811C29.7317 61.3168 30.2245 60.9869 30.7944 60.5755C30.9476 62.2831 31.5807 63.9125 32.6206 65.2757C33.6604 66.6388 35.0646 67.68 36.671 68.2791C38.2774 68.8782 40.0204 69.0107 41.6989 68.6614C43.3774 68.312 44.9229 67.4951 46.1569 66.3048C49.1565 63.4166 52.2547 60.6141 55.3101 57.773L56.4242 56.7274C58.2926 60.3827 58.104 61.3468 55.2329 63.648C37.5893 77.7663 19.9585 91.8875 2.34064 106.012C1.59073 106.611 0.108046 107.156 1.08079 108.433C2.05353 109.71 2.94914 108.394 3.69476 107.798C20.2242 94.5972 36.7423 81.3787 53.2489 68.1432C53.6774 67.8003 54.1273 67.4961 54.7487 67.0419V68.4303C54.6647 70.0345 55.0599 71.6275 55.8841 73.0064C56.7082 74.3853 57.924 75.4879 59.3767 76.1736C60.8007 76.897 62.4173 77.1503 63.9942 76.897C65.5711 76.6436 67.0271 75.8968 68.1528 74.7638C71.551 71.7642 74.9149 68.7045 78.2959 65.6792C78.5102 65.4863 78.7587 65.3406 79.153 65.0407C79.6367 67.9861 79.542 70.9975 78.8744 73.9068C78.7096 74.2936 78.4394 74.6262 78.0945 74.8667C75.3005 77.2807 72.4966 79.6847 69.6826 82.0787L28.4075 117.115C27.9243 117.437 27.4972 117.836 27.1434 118.297C27.0305 118.507 26.9672 118.741 26.9582 118.979C26.9493 119.217 26.9951 119.455 27.092 119.673C27.2856 119.818 27.5094 119.917 27.7468 119.964C27.9842 120.011 28.2291 120.004 28.4633 119.943C28.648 119.889 28.8181 119.794 28.9603 119.664C29.1746 119.493 29.3889 119.274 29.5817 119.099L59.4196 93.8158C60.8551 92.5988 62.3035 91.399 63.8162 90.1306C63.8928 90.3343 63.9544 90.5434 64.0005 90.7562C64.0861 92.4102 64.6556 94.0027 65.6383 95.3358C66.6211 96.669 67.9737 97.6842 69.5284 98.2553C71.0641 98.9225 72.7662 99.108 74.4096 98.7874C76.053 98.4669 77.5606 97.6552 78.733 96.4598C80.7213 94.6472 82.684 92.8045 84.6552 90.9705C85.9407 89.792 87.1834 88.6093 88.5376 87.3366C88.7898 88.2162 88.9944 89.1089 89.1503 90.0106C89.3473 92.1094 89.0578 94.2253 88.3042 96.1941C87.5506 98.1628 86.3532 99.9313 84.8051 101.362C79.8386 106.71 74.7606 111.942 69.7255 117.217C69.3955 117.56 68.9413 117.843 68.7613 118.25C68.5813 118.657 68.4657 119.454 68.6799 119.626L68.7399 119.664C69.1892 119.883 69.6945 119.959 70.1883 119.883C70.3267 119.854 70.45 119.777 70.5354 119.664C70.6554 119.54 70.7711 119.386 70.8868 119.27C74.9663 115.053 79.0672 110.858 83.1168 106.611C84.7513 104.955 86.288 103.205 87.7191 101.371C89.5851 99.3049 90.8224 96.7492 91.2855 94.0042C91.7486 91.2591 91.4181 88.439 90.3331 85.8754C90.2164 85.3037 90.3304 84.7092 90.6502 84.2213C90.9287 83.7413 91.2372 83.2742 91.5543 82.8114C92.569 81.494 93.4141 80.0544 94.0698 78.5262C95.3368 74.7758 97.2817 71.2898 99.8076 68.2417C100.969 66.7695 101.768 65.0448 102.14 63.207C102.512 61.3692 102.447 59.4696 101.95 57.6616C101.775 56.9741 101.775 56.2535 101.95 55.5661C104.119 48.8512 106.351 42.1577 108.562 35.4599L111.519 26.4867L112.432 23.7142C114.377 23.7142 116.211 23.6756 118.037 23.7142C119.554 23.757 120.017 23.0457 120 21.5715C119.91 15.658 119.944 9.74866 119.944 3.83936ZM43.9371 65.1435C42.9791 66.0304 41.7647 66.591 40.4683 66.745C39.1719 66.8989 37.86 66.6383 36.7208 66.0006C35.587 65.5162 34.631 64.6925 33.9842 63.6429C33.3373 62.5932 33.0314 61.369 33.1084 60.1384C33.2457 58.6271 33.8732 57.202 34.8953 56.0803C41.5388 49.7455 48.7368 44.019 56.4028 38.9695C56.8212 38.6737 57.2972 38.4693 57.7998 38.3696C58.1369 38.3074 58.4825 38.3074 58.8196 38.3696C59.2234 38.4482 59.6086 38.6023 59.9552 38.8238C60.656 39.2588 61.2224 39.8796 61.5916 40.6171C61.9607 41.3547 62.1182 42.1802 62.0464 43.0019C61.9576 45.1413 61.2092 47.2009 59.9038 48.8983C55.237 54.9207 49.878 60.3733 43.9371 65.1435ZM66.2202 73.4097C65.4752 74.1758 64.4966 74.6724 63.4385 74.8213C62.3803 74.9703 61.3027 74.7631 60.3752 74.2324C59.3988 73.7249 58.5678 72.977 57.9605 72.0593C57.3533 71.1416 56.9897 70.0844 56.9042 68.9874C56.8047 68.0401 56.9263 67.0828 57.2594 66.1905C57.5925 65.2982 58.1281 64.4954 58.8239 63.8451C65.3288 57.8454 72.3078 52.3811 79.6929 47.5056C79.9157 47.3642 80.1214 47.2228 80.3657 47.0771C81.0107 46.6114 81.7923 46.3734 82.5875 46.4005C83.3826 46.4277 84.1462 46.7185 84.758 47.2271C85.35 47.7285 85.7688 48.4038 85.955 49.157C86.1412 49.9101 86.0852 50.7028 85.795 51.4223C84.8607 54.5342 83.1364 57.351 80.7899 59.5985C76.0633 64.3208 71.1482 68.8674 66.2288 73.3925L66.2202 73.4097ZM91.5501 78.7276C88.8175 83.319 85.3967 87.4638 81.407 91.0176C79.8872 92.4831 78.3088 93.8844 76.6718 95.2214C75.8049 95.9408 74.7625 96.417 73.6512 96.6013C72.5399 96.7856 71.3996 96.6714 70.3469 96.2704C69.2942 95.8694 68.3669 95.1959 67.6599 94.3189C66.9529 93.4419 66.4915 92.3928 66.323 91.279C66.2543 90.6597 66.3091 90.0329 66.4842 89.435C66.6592 88.837 66.9511 88.2796 67.3429 87.7951C73.1743 81.4627 79.8387 75.9515 87.1534 71.4128C87.2424 71.3783 87.3366 71.3594 87.432 71.3571L87.8605 71.7856C86.6606 73.0712 85.4265 74.2967 84.2738 75.6123C83.9272 76.1208 83.6396 76.6671 83.4167 77.2407C84.0509 77.4292 84.7923 77.9263 85.3065 77.7506C87.3763 77.0564 89.4117 76.2508 91.5929 75.3937L93.3541 74.7081C92.6942 76.1651 92.2228 77.4935 91.5586 78.7105L91.5501 78.7276ZM97.4336 67.8646C95.8352 69.8996 93.8317 71.5806 91.5501 72.8012C90.8444 73.1954 90.1202 73.564 89.3775 73.9068C90.1402 70.9885 90.903 68.2846 91.5501 65.5506L91.5758 65.4392C92.2106 62.7546 93.418 60.2389 95.1153 58.0644C96.1566 56.6974 97.3265 57.2416 98.5221 57.5373C99.6277 57.8073 99.9062 58.6172 99.9533 59.6799C100.129 62.6162 99.2372 65.5171 97.4422 67.8475L97.4336 67.8646ZM107.461 31.4404C104.984 38.9395 102.477 46.4386 100.06 53.9463C99.6062 55.3561 98.9892 55.6132 97.6565 54.7648L104.011 26.5124L104.988 22.1758L110.131 23.3799L109.098 26.5124L107.461 31.4404Z" fill="#1F2626"/>
    </g>
    <defs>
    <clipPath id="clip0_1_2427">
    <rect width="120" height="120" fill="white"/>
    </clipPath>
    </defs>
</g>

<g id="redux">
        <g clip-path="url(#clip0_1_2440)">
    <path d="M83.1473 82.6013C87.5756 82.1428 90.9352 78.3253 90.7823 73.7438C90.63 69.1627 86.812 65.4975 82.2309 65.4975H81.9258C77.1914 65.6503 73.5267 69.6207 73.6795 74.3546C73.8323 76.6453 74.7483 78.6305 76.1227 80.0049C70.9308 90.2368 62.9902 97.7194 51.0792 103.98C42.9858 108.256 34.5872 109.784 26.1886 108.715C19.3167 107.798 13.972 104.745 10.612 99.7046C5.72578 92.2219 5.26781 84.128 9.39093 76.0346C12.2925 70.2314 16.8731 65.9555 19.7747 63.8175C19.1639 61.8324 18.2475 58.4728 17.7895 56.0297C-4.35282 72.0643 -2.06204 93.7491 4.65703 103.98C9.69609 111.616 19.9275 116.35 31.2276 116.35C34.2816 116.35 37.3355 116.045 40.3898 115.282C59.9362 111.464 74.7487 99.8574 83.1473 82.6013ZM110.024 63.6652C98.4178 50.0738 81.315 42.5911 61.7686 42.5911H59.3255C57.9511 39.8424 55.0495 38.0096 51.8428 38.0096H51.5372C46.8037 38.1624 43.1391 42.1327 43.2914 46.8671C43.4442 51.4482 47.2617 55.1133 51.8428 55.1133H52.148C55.5075 54.9605 58.4091 52.8225 59.6306 49.921H62.3794C73.9852 49.921 84.9797 53.2805 94.9059 59.8472C102.541 64.8868 108.038 71.4535 111.092 79.3941C113.688 85.808 113.535 92.0691 110.787 97.4143C106.511 105.508 99.3342 109.936 89.8664 109.936C83.7581 109.936 77.9555 108.104 74.9011 106.729C73.2216 108.256 70.1672 110.7 68.0292 112.227C74.5959 115.281 81.315 116.961 87.7284 116.961C102.388 116.961 113.23 108.867 117.353 100.774C121.782 91.9163 121.476 76.6453 110.024 63.6652ZM32.4492 85.1968C32.602 89.7783 36.4195 93.443 41.0006 93.443H41.3062C46.0401 93.2907 49.7048 89.3199 49.552 84.586C49.3997 80.0044 45.5817 76.3397 41.0006 76.3397H40.6955C40.3898 76.3397 39.9314 76.3397 39.6267 76.4921C33.3656 66.1078 30.7697 54.8077 31.6861 42.5907C32.2964 33.428 35.3508 25.4869 40.6955 18.9202C45.1237 13.2699 53.6751 10.5211 59.4783 10.3688C75.6647 10.0632 82.5361 30.2208 82.9945 38.3147C84.9797 38.7727 88.3392 39.8419 90.63 40.6055C88.7972 15.8668 73.5267 3.03894 58.8675 3.03894C45.1237 3.03894 32.4492 12.9652 27.4097 27.6253C20.3855 47.1722 24.9666 65.9555 33.518 80.7685C32.7548 81.8372 32.2964 83.5172 32.4492 85.1972V85.1968Z" fill="#764ABC"/>
    </g>
    <defs>
    <clipPath id="clip0_1_2440">
    <rect width="120" height="120" fill="white"/>
    </clipPath>
    </defs>
</g>

<g id="axios">
        <g id="surface1">
    <path style=" stroke:none;fill-rule:nonzero;fill:rgb(35.294118%,16.078431%,89.411765%);fill-opacity:1;" d="M 59.652344 42.804688 L 56.148438 45.65625 L 58.433594 45.65625 L 58.433594 54.929688 L 59.652344 53.953125 Z M 59.652344 42.804688 "/>
    <path style=" stroke:none;fill-rule:nonzero;fill:rgb(35.294118%,16.078431%,89.411765%);fill-opacity:1;" d="M 60.65625 53.117188 L 64.21875 50.195312 L 61.875 50.195312 L 61.875 41.128906 L 60.664062 41.972656 L 60.664062 53.117188 Z M 60.65625 53.117188 "/>
    <path style=" stroke:none;fill-rule:nonzero;fill:rgb(35.294118%,16.078431%,89.411765%);fill-opacity:1;" d="M 104.765625 44.464844 C 105.167969 44.671875 105.460938 44.851562 105.636719 45 L 106.894531 42.601562 C 106.265625 42.214844 105.507812 41.867188 104.617188 41.558594 C 103.742188 41.25 102.796875 41.101562 101.785156 41.101562 C 100.820312 41.101562 99.917969 41.257812 99.09375 41.585938 C 98.289062 41.90625 97.640625 42.382812 97.152344 43.011719 C 96.683594 43.640625 96.449219 44.429688 96.449219 45.367188 C 96.449219 46.414062 96.777344 47.222656 97.445312 47.785156 C 98.117188 48.335938 99.160156 48.789062 100.546875 49.144531 C 101.664062 49.433594 102.554688 49.695312 103.238281 49.941406 C 103.929688 50.164062 104.277344 50.550781 104.277344 51.074219 C 104.277344 51.863281 103.539062 52.265625 102.046875 52.265625 C 101.304688 52.265625 100.601562 52.179688 99.9375 52.003906 C 99.273438 51.824219 98.691406 51.609375 98.195312 51.347656 C 97.707031 51.085938 97.359375 50.851562 97.152344 50.644531 L 95.839844 53.183594 C 96.683594 53.71875 97.640625 54.140625 98.726562 54.441406 C 99.804688 54.75 100.902344 54.898438 102 54.898438 C 102.957031 54.898438 103.835938 54.769531 104.664062 54.515625 C 105.488281 54.242188 106.144531 53.804688 106.648438 53.203125 C 107.164062 52.59375 107.429688 51.777344 107.429688 50.785156 C 107.429688 49.960938 107.230469 49.304688 106.847656 48.796875 C 106.472656 48.28125 105.9375 47.867188 105.226562 47.558594 C 104.53125 47.25 103.707031 46.976562 102.75 46.734375 C 101.671875 46.472656 100.847656 46.238281 100.273438 46.03125 C 99.722656 45.824219 99.449219 45.46875 99.449219 44.960938 C 99.449219 44.109375 100.210938 43.679688 101.726562 43.679688 C 102.289062 43.679688 102.84375 43.761719 103.378906 43.921875 C 103.921875 44.082031 104.382812 44.257812 104.765625 44.464844 Z M 104.765625 44.464844 "/>
    <path style=" stroke:none;fill-rule:evenodd;fill:rgb(35.294118%,16.078431%,89.411765%);fill-opacity:1;" d="M 79.273438 54.835938 C 78.207031 54.835938 77.242188 54.648438 76.367188 54.28125 C 75.496094 53.898438 74.746094 53.382812 74.117188 52.734375 C 73.492188 52.070312 73.003906 51.328125 72.664062 50.503906 C 72.328125 49.679688 72.160156 48.835938 72.160156 47.960938 C 72.160156 47.070312 72.335938 46.21875 72.695312 45.394531 C 73.050781 44.570312 73.546875 43.847656 74.195312 43.210938 C 74.839844 42.5625 75.601562 42.054688 76.472656 41.679688 C 77.34375 41.304688 78.300781 41.128906 79.332031 41.128906 C 80.398438 41.128906 81.367188 41.335938 82.238281 41.738281 C 83.109375 42.121094 83.851562 42.648438 84.46875 43.3125 C 85.097656 43.960938 85.585938 44.691406 85.921875 45.515625 C 86.257812 46.339844 86.429688 47.175781 86.429688 48.039062 C 86.429688 48.929688 86.25 49.78125 85.894531 50.605469 C 85.539062 51.414062 85.039062 52.144531 84.394531 52.789062 C 83.765625 53.417969 83.015625 53.925781 82.144531 54.289062 C 81.261719 54.648438 80.304688 54.835938 79.273438 54.835938 Z M 75.113281 47.980469 C 75.113281 48.710938 75.28125 49.40625 75.617188 50.0625 C 75.957031 50.710938 76.433594 51.234375 77.042969 51.636719 C 77.671875 52.039062 78.421875 52.246094 79.292969 52.246094 C 80.183594 52.246094 80.933594 52.039062 81.542969 51.617188 C 82.164062 51.179688 82.621094 50.644531 82.949219 49.996094 C 83.269531 49.332031 83.4375 48.65625 83.4375 47.960938 C 83.4375 47.230469 83.269531 46.546875 82.929688 45.898438 C 82.59375 45.253906 82.105469 44.738281 81.476562 44.351562 C 80.867188 43.949219 80.128906 43.742188 79.273438 43.742188 C 78.382812 43.742188 77.625 43.949219 76.996094 44.371094 C 76.386719 44.792969 75.917969 45.328125 75.589844 45.976562 C 75.273438 46.613281 75.113281 47.289062 75.113281 47.980469 Z M 75.113281 47.980469 "/>
    <path style=" stroke:none;fill-rule:evenodd;fill:rgb(35.294118%,16.078431%,89.411765%);fill-opacity:1;" d="M 12.5625 54.742188 L 18.476562 41.195312 L 20.878906 41.195312 L 26.765625 54.742188 L 23.664062 54.742188 L 22.304688 51.5625 L 17.042969 51.5625 L 15.683594 54.742188 Z M 19.6875 44.757812 L 17.699219 49.023438 L 21.601562 49.023438 Z M 19.6875 44.757812 "/>
    <path style=" stroke:none;fill-rule:nonzero;fill:rgb(35.294118%,16.078431%,89.411765%);fill-opacity:1;" d="M 38.210938 41.195312 L 41.945312 45.992188 L 45.675781 41.195312 L 48.84375 41.195312 L 43.492188 48.046875 L 48.675781 54.730469 L 45.496094 54.730469 L 41.933594 50.128906 L 38.398438 54.730469 L 35.175781 54.730469 L 40.386719 48.046875 L 35.007812 41.195312 Z M 38.210938 41.195312 "/>
    </g>
</g>

<g id="reactRouter">
    <path style=" stroke:none;fill-rule:nonzero;fill:rgb(0%,0%,0%);fill-opacity:1;" d="M 36.59375 43.648438 C 42.601562 43.648438 47.472656 38.75 47.472656 32.707031 C 47.472656 26.664062 42.601562 21.765625 36.59375 21.765625 C 30.585938 21.765625 25.714844 26.664062 25.714844 32.707031 C 25.714844 38.75 30.585938 43.648438 36.59375 43.648438 Z M 10.878906 65.53125 C 16.886719 65.53125 21.757812 60.632812 21.757812 54.589844 C 21.757812 48.546875 16.886719 43.648438 10.878906 43.648438 C 4.871094 43.648438 0 48.546875 0 54.589844 C 0 60.632812 4.871094 65.53125 10.878906 65.53125 Z M 109.121094 65.53125 C 115.128906 65.53125 120 60.632812 120 54.589844 C 120 48.546875 115.128906 43.648438 109.121094 43.648438 C 103.113281 43.648438 98.242188 48.546875 98.242188 54.589844 C 98.242188 60.632812 103.113281 65.53125 109.121094 65.53125 Z M 109.121094 65.53125 "/>
    <path style=" stroke:none;fill-rule:nonzero;fill:rgb(81.568627%,0.784314%,10.588235%);fill-opacity:1;" d="M 73.390625 33.167969 C 73.042969 29.511719 72.863281 26.46875 70.082031 24.332031 C 66.554688 21.625 62.558594 23.382812 57.640625 21.59375 C 52.804688 20.417969 49.21875 16.101562 49.21875 10.957031 C 49.21875 4.90625 54.175781 0 60.292969 0 C 64.824219 0 68.71875 2.691406 70.433594 6.542969 C 73.058594 11.558594 71.351562 16.664062 74.652344 19.234375 C 78.558594 22.28125 83.824219 20.050781 89.699219 22.9375 C 91.589844 23.808594 93.1875 25.191406 94.3125 26.90625 C 95.441406 28.621094 96.09375 30.667969 96.09375 32.867188 C 96.09375 38.011719 92.507812 42.328125 87.671875 43.507812 C 82.753906 45.292969 78.757812 43.535156 75.230469 46.242188 C 71.265625 49.289062 73.390625 54.382812 70.15625 59.765625 C 68.324219 63.308594 64.59375 65.734375 60.292969 65.734375 C 54.175781 65.734375 49.21875 60.828125 49.21875 54.777344 C 49.21875 50.382812 51.835938 46.59375 55.613281 44.847656 C 61.488281 41.960938 66.753906 44.191406 70.660156 41.148438 C 72.914062 39.390625 73.390625 36.683594 73.390625 33.167969 Z M 73.390625 33.167969 "/>
</g>

<g id="reactHookForm">
    <path style="fill-rule:evenodd;fill:rgb(92.54902%,34.901961%,56.470588%);fill-opacity:1;stroke-width:17;stroke-linecap:butt;stroke-linejoin:miter;stroke:rgb(100%,100%,100%);stroke-opacity:1;stroke-miterlimit:4;" d="M 157.994026 8.500657 C 168.076057 8.500657 177.198529 12.585215 183.808824 19.18947 C 190.412454 25.793724 194.497243 34.924304 194.497243 45.003086 L 194.497243 156.996914 C 194.497243 167.075696 190.412454 176.206276 183.808824 182.81053 C 176.971967 189.666754 167.676241 193.512605 157.994026 193.499343 L 45.005974 193.499343 C 34.923943 193.499343 25.801471 189.414785 19.191176 182.81053 C 12.587546 176.206276 8.502757 167.075696 8.502757 156.996914 L 8.502757 45.003086 C 8.502757 34.924304 12.587546 25.793724 19.191176 19.18947 C 26.028033 12.333246 35.323759 8.487395 45.005974 8.500657 Z M 157.994026 8.500657 " transform="matrix(0.586207,0,0,0.589109,0,0)"/>
    <path style=" stroke:none;fill-rule:evenodd;fill:rgb(100%,100%,100%);fill-opacity:1;" d="M 78.191406 30.398438 L 65.957031 30.398438 C 65.0625 27.59375 62.453125 25.6875 59.503906 25.6875 C 56.558594 25.6875 53.949219 27.59375 53.050781 30.398438 L 40.808594 30.398438 C 35.988281 30.398438 32.082031 34.308594 32.082031 39.125 L 32.082031 84.59375 C 32.082031 89.410156 35.988281 93.320312 40.808594 93.320312 L 78.191406 93.320312 C 83.011719 93.320312 86.917969 89.410156 86.917969 84.59375 L 86.917969 39.125 C 86.917969 34.308594 83.011719 30.398438 78.191406 30.398438 Z M 53.660156 31.988281 C 54.042969 31.996094 54.375 31.734375 54.453125 31.359375 C 54.972656 28.976562 57.085938 27.277344 59.523438 27.277344 C 61.964844 27.277344 64.074219 28.976562 64.59375 31.359375 C 64.675781 31.734375 65.007812 31.996094 65.386719 31.988281 L 69.65625 31.988281 L 69.65625 37.183594 C 69.65625 38.496094 68.589844 39.5625 67.273438 39.5625 L 51.765625 39.5625 C 50.449219 39.5625 49.386719 38.496094 49.386719 37.183594 L 49.386719 31.988281 Z M 85.332031 84.59375 C 85.332031 88.535156 82.132812 91.734375 78.191406 91.734375 L 40.808594 91.734375 C 36.867188 91.734375 33.667969 88.535156 33.667969 84.59375 L 33.667969 39.125 C 33.667969 35.183594 36.867188 31.988281 40.808594 31.988281 L 47.796875 31.988281 L 47.796875 37.183594 C 47.796875 39.375 49.574219 41.148438 51.765625 41.148438 L 67.234375 41.148438 C 69.425781 41.148438 71.203125 39.375 71.203125 37.183594 L 71.203125 31.988281 L 78.191406 31.988281 C 82.136719 31.988281 85.332031 35.183594 85.332031 39.125 Z M 76.636719 56.328125 L 62.671875 56.328125 C 62.234375 56.324219 61.882812 56.679688 61.878906 57.121094 C 61.882812 57.558594 62.234375 57.914062 62.671875 57.914062 L 76.636719 57.914062 C 77.074219 57.914062 77.429688 57.558594 77.429688 57.121094 C 77.429688 56.679688 77.074219 56.324219 76.636719 56.328125 Z M 56.007812 56.328125 L 42.046875 56.328125 C 41.609375 56.324219 41.253906 56.679688 41.253906 57.121094 C 41.253906 57.558594 41.609375 57.914062 42.046875 57.914062 L 56.007812 57.914062 C 56.445312 57.914062 56.800781 57.558594 56.804688 57.121094 C 56.800781 56.679688 56.445312 56.324219 56.007812 56.328125 Z M 76.675781 75.523438 L 62.671875 75.523438 C 62.238281 75.523438 61.882812 75.878906 61.878906 76.320312 C 61.882812 76.757812 62.238281 77.113281 62.671875 77.113281 L 76.675781 77.113281 C 77.113281 77.113281 77.46875 76.757812 77.46875 76.320312 C 77.46875 75.878906 77.113281 75.523438 76.675781 75.523438 Z M 56.050781 75.523438 L 42.046875 75.523438 C 41.609375 75.523438 41.253906 75.878906 41.253906 76.320312 C 41.253906 76.757812 41.609375 77.113281 42.046875 77.113281 L 56.050781 77.113281 C 56.484375 77.113281 56.839844 76.757812 56.84375 76.320312 C 56.839844 75.878906 56.484375 75.523438 56.050781 75.523438 Z M 56.050781 75.523438 "/>
</g>

<g id="storybook">
    <path fill="#FF4785" d="m13.1917 87.6179-2.9119-77.5897c-.0962-2.56249 1.8686-4.73416 4.4279-4.89412l65.9955-4.12472c2.605-.162812 4.8488 1.81701 5.0116 4.42207.0062.09815.0092.19646.0092.2948V90.2739c0 2.6102-2.1159 4.7261-4.726 4.7261-.0707 0-.1414-.0016-.2121-.0048L17.7024 92.162c-2.4569-.1104-4.4185-2.0865-4.5107-4.5441Z"></path><mask id="a" width="76" height="94" x="10" y="1" maskUnits="userSpaceOnUse" style="mask-type:luminance"><path fill="#fff" d="m13.1917 87.6179-2.9119-77.5897c-.0962-2.56249 1.8686-4.73416 4.4279-4.89412l65.9955-4.12472c2.605-.162812 4.8488 1.81701 5.0116 4.42207.0062.09815.0092.19646.0092.2948V90.2739c0 2.6102-2.1159 4.7261-4.726 4.7261-.0707 0-.1414-.0016-.2121-.0048L17.7024 92.162c-2.4569-.1104-4.4185-2.0865-4.5107-4.5441Z"></path></mask><g mask="url(#a)"><path fill="#fff" d="m65.9891 12.5541.4508-10.84199L75.503 1l.3905 11.181c.0136.3891-.2909.7156-.68.7291-.1666.0059-.3299-.0476-.4608-.1507l-3.4951-2.7533-4.138 3.139c-.3103.2353-.7525.1746-.9878-.1356-.0991-.1306-.1495-.2916-.1427-.4554ZM54.3982 36.4299c0 1.8387 12.3853.9575 14.048-.3341 0-12.5213-6.7186-19.101-19.0215-19.101S30.2287 23.6769 30.2287 33.7c0 17.457 23.5587 17.7911 23.5587 27.3131 0 2.6728-1.3088 4.2598-4.1882 4.2598-3.752 0-5.2353-1.9161-5.0608-8.4312 0-1.4133-14.3097-1.8539-14.746 0-1.1109 15.7883 8.7254 20.3422 19.9813 20.3422 10.9068 0 19.4578-5.8136 19.4578-16.3379 0-18.7098-23.9078-18.2087-23.9078-27.4801 0-3.7586 2.7921-4.2598 4.45-4.2598 1.7451 0 4.8862.3076 4.6245 7.3238Z"></path></g>
</g>

<g id="git">
    <g id="surface1">
    <path style=" stroke:none;fill-rule:nonzero;fill:rgb(95.686275%,31.764707%,11.764706%);fill-opacity:1;" d="M 105.5 55.25 L 64.75 14.5 C 63.5 13.25 61.75 12.5 60 12.5 C 58.25 12.5 56.5 13.25 55.25 14.5 L 46.5 23.25 L 56.75 33.5 C 57.75 33 58.75 32.75 60 32.75 C 64.25 32.75 67.5 36 67.5 40.25 C 67.5 41.5 67.25 42.5 66.75 43.5 L 76.75 53.5 C 77.75 53 78.75 52.75 80 52.75 C 84.25 52.75 87.5 56 87.5 60.25 C 87.5 64.5 84.25 67.75 80 67.75 C 75.75 67.75 72.5 64.5 72.5 60.25 C 72.5 59 72.75 58 73.25 57 L 63.25 47 C 63 47 62.75 47.25 62.5 47.25 L 62.5 73.25 C 65.5 74.25 67.5 77 67.5 80.25 C 67.5 84.5 64.25 87.75 60 87.75 C 55.75 87.75 52.5 84.5 52.5 80.25 C 52.5 77 54.5 74.25 57.5 73.25 L 57.5 47 C 54.5 46 52.5 43.25 52.5 40 C 52.5 38.75 52.75 37.75 53.25 36.75 L 43 26.5 L 14.5 55.25 C 13.25 56.5 12.5 58.25 12.5 60 C 12.5 61.75 13.25 63.5 14.5 64.75 L 55.25 105.5 C 56.5 106.75 58.25 107.5 60 107.5 C 61.75 107.5 63.5 106.75 64.75 105.5 L 105.5 64.75 C 106.75 63.5 107.5 61.75 107.5 60 C 107.5 58.25 106.75 56.5 105.5 55.25 Z M 105.5 55.25 "/>
    </g>
</g>

<g id="html">
    <g id="surface1">
    <path style=" stroke:none;fill-rule:nonzero;fill:rgb(90.196078%,31.764706%,0%);fill-opacity:1;" d="M 102.5 12.5 L 17.5 12.5 L 25 97.5 L 60 107.5 L 95 97.5 Z M 102.5 12.5 "/>
    <path style=" stroke:none;fill-rule:nonzero;fill:rgb(100%,42.745098%,0%);fill-opacity:1;" d="M 60 20 L 60 99.75 L 88 91.75 L 94.25 20 Z M 60 20 "/>
    <path style=" stroke:none;fill-rule:nonzero;fill:rgb(100%,100%,100%);fill-opacity:1;" d="M 60 62.5 L 60 52.5 L 81.5 52.5 L 79.75 81.25 L 60 87.75 L 60 77.25 L 70.25 73.75 L 71 62.5 Z M 82.25 42.5 L 83 32.5 L 60 32.5 L 60 42.5 Z M 82.25 42.5 "/>
    <path style=" stroke:none;fill-rule:nonzero;fill:rgb(93.333333%,93.333333%,93.333333%);fill-opacity:1;" d="M 60 77.25 L 60 87.75 L 40.25 81.25 L 39.25 67.5 L 49.25 67.5 L 49.75 73.75 Z M 47.75 42.5 L 60 42.5 L 60 32.5 L 37.25 32.5 L 39 62.5 L 60 62.5 L 60 52.5 L 48.5 52.5 Z M 47.75 42.5 "/>
    </g>
</g>

<g id="css">
    <g id="surface1">
    <path style=" stroke:none;fill-rule:nonzero;fill:rgb(0.784314%,46.666667%,74.117647%);fill-opacity:1;" d="M 102.5 12.5 L 17.5 12.5 L 25 97.5 L 60 107.5 L 95 97.5 Z M 102.5 12.5 "/>
    <path style=" stroke:none;fill-rule:nonzero;fill:rgb(1.176471%,60.784314%,89.803922%);fill-opacity:1;" d="M 60 20 L 60 99.75 L 88 91.75 L 94.25 20 Z M 60 20 "/>
    <path style=" stroke:none;fill-rule:nonzero;fill:rgb(100%,100%,100%);fill-opacity:1;" d="M 82.75 32.5 L 60 32.5 L 60 42.5 L 72.25 42.5 L 71.5 52.5 L 60 52.5 L 60 62.5 L 71 62.5 L 70.25 73.75 L 60 77.25 L 60 87.75 L 79.75 81.25 L 81.5 52.5 Z M 82.75 32.5 "/>
    <path style=" stroke:none;fill-rule:nonzero;fill:rgb(93.333333%,93.333333%,93.333333%);fill-opacity:1;" d="M 60 32.5 L 60 42.5 L 37.75 42.5 L 37 32.5 Z M 48.5 52.5 L 49 62.5 L 60 62.5 L 60 52.5 Z M 49.5 67.5 L 39.5 67.5 L 40.25 81.25 L 60 87.75 L 60 77.25 L 49.75 73.75 Z M 49.5 67.5 "/>
    </g>
</g>

<g id="radixUI">
    <g id="surface1">
    <rect x="0" y="0" width="120" height="120" style="fill:rgb(100%,100%,100%);fill-opacity:1;stroke:none;"/>
    <path style=" stroke:none;fill-rule:nonzero;fill:rgb(0%,0%,0%);fill-opacity:1;" d="M 0 60 L 0 120 L 120 120 L 120 0 L 0 0 Z M 59.144531 41.144531 L 59.144531 51 L 39.429688 51 L 39.429688 31.285156 L 59.144531 31.285156 Z M 74.785156 32.101562 C 78.472656 33.855469 80.570312 37.070312 80.570312 41.144531 C 80.570312 48.558594 72.769531 53.1875 66.085938 49.757812 C 59.058594 46.15625 59.398438 35.398438 66.644531 32.144531 C 68.914062 31.070312 72.601562 31.070312 74.785156 32.101562 Z M 59.144531 70.714844 L 59.144531 88.714844 L 57.769531 88.714844 C 51.128906 88.671875 43.671875 83.785156 40.757812 77.570312 C 39.8125 75.515625 39.644531 74.65625 39.644531 70.929688 C 39.6875 65.1875 40.628906 62.699219 44.3125 59.015625 C 48 55.328125 53.3125 52.886719 57.984375 52.757812 L 59.144531 52.714844 Z M 59.144531 70.714844 "/>
    </g>
</g>

<g id="materialUI">
    <g id="surface1">
    <path style=" stroke:none;fill-rule:nonzero;fill:rgb(0%,69.019608%,100%);fill-opacity:1;" d="M 0 52.164062 L 0 0 L 45 26.082031 L 45 43.46875 L 15 26.082031 L 15 60.859375 Z M 0 52.164062 "/>
    <path style=" stroke:none;fill-rule:nonzero;fill:rgb(0%,50.588235%,79.607843%);fill-opacity:1;" d="M 45 26.082031 L 90 0 L 90 52.164062 L 60 69.550781 L 45 60.859375 L 75 43.46875 L 75 26.082031 L 45 43.46875 Z M 45 26.082031 "/>
    <path style=" stroke:none;fill-rule:nonzero;fill:rgb(0%,69.019608%,100%);fill-opacity:1;" d="M 45 60.859375 L 45 78.246094 L 75 95.632812 L 75 78.246094 Z M 45 60.859375 "/>
    <path style=" stroke:none;fill-rule:nonzero;fill:rgb(0%,50.588235%,79.607843%);fill-opacity:1;" d="M 75 95.632812 L 120 69.550781 L 120 34.777344 L 105 43.46875 L 105 60.859375 L 75 78.246094 Z M 105 26.082031 L 105 8.695312 L 120 0 L 120 17.386719 Z M 105 26.082031 "/>
    </g>
</g>

<g id="sass">
    <g id="surface1">
    <path style=" stroke:none;fill-rule:nonzero;fill:rgb(94.117647%,38.431373%,57.254902%);fill-opacity:1;" d="M 99.667969 64.890625 C 95.824219 64.910156 92.492188 65.832031 89.703125 67.210938 C 88.683594 65.171875 87.648438 63.378906 87.476562 62.046875 C 87.273438 60.492188 87.039062 59.5625 87.28125 57.710938 C 87.527344 55.859375 88.601562 53.234375 88.585938 53.035156 C 88.570312 52.835938 88.34375 51.894531 86.128906 51.878906 C 83.910156 51.863281 82.011719 52.304688 81.789062 52.890625 C 81.566406 53.476562 81.140625 54.792969 80.875 56.167969 C 80.488281 58.175781 76.449219 65.351562 74.15625 69.101562 C 73.40625 67.636719 72.765625 66.34375 72.636719 65.324219 C 72.433594 63.769531 72.199219 62.839844 72.441406 60.988281 C 72.6875 59.136719 73.761719 56.511719 73.746094 56.3125 C 73.730469 56.113281 73.503906 55.171875 71.289062 55.15625 C 69.070312 55.140625 67.171875 55.582031 66.949219 56.167969 C 66.726562 56.753906 66.488281 58.121094 66.035156 59.445312 C 65.578125 60.765625 60.210938 72.730469 58.804688 75.832031 C 58.085938 77.414062 57.464844 78.683594 57.023438 79.546875 C 57.023438 79.546875 57.023438 79.542969 57.023438 79.542969 C 57.023438 79.542969 56.996094 79.601562 56.949219 79.699219 C 56.574219 80.433594 56.351562 80.84375 56.351562 80.84375 C 56.351562 80.84375 56.351562 80.847656 56.359375 80.859375 C 56.058594 81.398438 55.738281 81.902344 55.578125 81.902344 C 55.46875 81.902344 55.246094 80.460938 55.628906 78.480469 C 56.425781 74.328125 58.34375 67.859375 58.328125 67.636719 C 58.316406 67.519531 58.683594 66.390625 57.074219 65.800781 C 55.511719 65.230469 54.953125 66.183594 54.808594 66.1875 C 54.671875 66.191406 54.570312 66.523438 54.570312 66.523438 C 54.570312 66.523438 56.3125 59.246094 51.246094 59.246094 C 48.074219 59.246094 43.683594 62.714844 41.523438 65.859375 C 40.15625 66.601562 37.234375 68.199219 34.136719 69.898438 C 32.949219 70.554688 31.734375 71.222656 30.578125 71.859375 C 30.503906 71.769531 30.421875 71.683594 30.34375 71.597656 C 24.195312 65.039062 12.835938 60.402344 13.316406 51.585938 C 13.488281 48.378906 14.605469 39.941406 35.148438 29.703125 C 51.976562 21.320312 65.449219 23.628906 67.773438 28.738281 C 71.101562 36.046875 60.574219 49.625 43.101562 51.585938 C 36.441406 52.332031 32.933594 49.75 32.0625 48.789062 C 31.144531 47.777344 31.007812 47.734375 30.664062 47.921875 C 30.109375 48.234375 30.460938 49.125 30.664062 49.65625 C 31.1875 51.015625 33.328125 53.421875 36.976562 54.621094 C 40.191406 55.675781 48.007812 56.253906 57.460938 52.597656 C 68.050781 48.503906 76.316406 37.109375 73.886719 27.585938 C 71.417969 17.898438 55.359375 14.714844 40.15625 20.113281 C 31.101562 23.328125 21.308594 28.375 14.265625 34.960938 C 5.890625 42.789062 4.558594 49.609375 5.109375 52.453125 C 7.0625 62.574219 21.011719 69.164062 26.59375 74.046875 C 26.320312 74.199219 26.058594 74.34375 25.824219 74.472656 C 23.023438 75.859375 12.390625 81.421875 9.734375 87.300781 C 6.714844 93.96875 10.210938 98.753906 12.527344 99.398438 C 19.699219 101.390625 27.058594 97.800781 31.015625 91.902344 C 34.972656 86.003906 34.488281 78.324219 32.675781 74.816406 C 32.652344 74.773438 32.628906 74.734375 32.605469 74.6875 C 33.328125 74.261719 34.066406 73.824219 34.796875 73.394531 C 36.21875 72.558594 37.621094 71.777344 38.832031 71.117188 C 38.152344 72.976562 37.65625 75.210938 37.398438 78.433594 C 37.09375 82.21875 38.644531 87.109375 40.675781 89.035156 C 41.570312 89.882812 42.644531 89.902344 43.324219 89.902344 C 45.6875 89.902344 46.765625 87.9375 47.953125 85.613281 C 49.40625 82.761719 50.699219 79.441406 50.699219 79.441406 C 50.699219 79.441406 49.078125 88.40625 53.496094 88.40625 C 55.105469 88.40625 56.722656 86.320312 57.445312 85.257812 C 57.449219 85.269531 57.449219 85.273438 57.449219 85.273438 C 57.449219 85.273438 57.488281 85.203125 57.574219 85.066406 C 57.738281 84.8125 57.835938 84.648438 57.835938 84.648438 C 57.835938 84.648438 57.835938 84.632812 57.84375 84.601562 C 58.488281 83.480469 59.925781 80.921875 62.074219 76.699219 C 64.855469 71.242188 67.519531 64.40625 67.519531 64.40625 C 67.519531 64.40625 67.765625 66.078125 68.578125 68.84375 C 69.058594 70.46875 70.074219 72.265625 70.875 73.988281 C 70.230469 74.886719 69.835938 75.398438 69.835938 75.398438 C 69.835938 75.398438 69.835938 75.40625 69.84375 75.425781 C 69.328125 76.109375 68.753906 76.847656 68.148438 77.566406 C 65.953125 80.179688 63.339844 83.164062 62.988281 84.023438 C 62.578125 85.039062 62.675781 85.785156 63.472656 86.386719 C 64.054688 86.824219 65.089844 86.894531 66.171875 86.824219 C 68.144531 86.691406 69.53125 86.199219 70.214844 85.902344 C 71.28125 85.523438 72.523438 84.933594 73.691406 84.074219 C 75.84375 82.492188 77.140625 80.230469 77.015625 77.230469 C 76.945312 75.578125 76.421875 73.941406 75.753906 72.394531 C 75.949219 72.113281 76.140625 71.828125 76.339844 71.546875 C 79.734375 66.585938 82.363281 61.136719 82.363281 61.136719 C 82.363281 61.136719 82.613281 62.804688 83.425781 65.570312 C 83.835938 66.96875 84.648438 68.496094 85.378906 69.988281 C 82.1875 72.582031 80.210938 75.59375 79.523438 77.570312 C 78.253906 81.226562 79.246094 82.878906 81.113281 83.257812 C 81.957031 83.425781 83.152344 83.039062 84.050781 82.660156 C 85.167969 82.289062 86.511719 81.671875 87.765625 80.75 C 89.917969 79.167969 91.988281 76.953125 91.863281 73.953125 C 91.804688 72.589844 91.433594 71.234375 90.933594 69.933594 C 93.636719 68.808594 97.136719 68.183594 101.597656 68.703125 C 111.164062 69.820312 113.039062 75.792969 112.683594 78.292969 C 112.324219 80.792969 110.316406 82.167969 109.644531 82.582031 C 108.976562 82.996094 108.769531 83.140625 108.824219 83.449219 C 108.90625 83.898438 109.21875 83.882812 109.789062 83.785156 C 110.578125 83.652344 114.8125 81.753906 114.996094 77.136719 C 115.222656 71.273438 109.609375 64.835938 99.667969 64.890625 Z M 25.925781 89.75 C 22.753906 93.207031 18.328125 94.511719 16.429688 93.414062 C 14.378906 92.226562 15.191406 87.136719 19.078125 83.464844 C 21.449219 81.230469 24.511719 79.171875 26.539062 77.902344 C 27.003906 77.625 27.679688 77.21875 28.503906 76.722656 C 28.640625 76.644531 28.71875 76.601562 28.71875 76.601562 L 28.71875 76.597656 C 28.878906 76.503906 29.039062 76.40625 29.207031 76.300781 C 30.625 81.523438 29.253906 86.121094 25.925781 89.75 Z M 49.011719 74.058594 C 47.910156 76.746094 45.601562 83.632812 44.191406 83.261719 C 42.984375 82.945312 42.25 77.710938 43.953125 72.5625 C 44.808594 69.96875 46.636719 66.871094 47.710938 65.671875 C 49.441406 63.734375 51.347656 63.101562 51.808594 63.886719 C 52.398438 64.886719 49.703125 72.371094 49.011719 74.058594 Z M 68.085938 83.15625 C 67.617188 83.402344 67.1875 83.554688 66.988281 83.4375 C 66.84375 83.351562 67.183594 83.027344 67.183594 83.027344 C 67.183594 83.027344 69.566406 80.460938 70.507812 79.292969 C 71.054688 78.613281 71.6875 77.804688 72.378906 76.90625 C 72.382812 76.996094 72.386719 77.085938 72.386719 77.171875 C 72.378906 80.246094 69.410156 82.324219 68.085938 83.15625 Z M 82.777344 79.808594 C 82.425781 79.558594 82.488281 78.757812 83.636719 76.253906 C 84.085938 75.273438 85.113281 73.621094 86.898438 72.039062 C 87.109375 72.691406 87.234375 73.3125 87.230469 73.890625 C 87.207031 77.761719 84.449219 79.207031 82.777344 79.808594 Z M 82.777344 79.808594 "/>
    </g>
</g>

<g id="antd">
    <defs>
    <linearGradient id="linear0" gradientUnits="userSpaceOnUse" x1="0.621023" y1="0" x2="1.081972" y2="0.378636" gradientTransform="matrix(88.980469,0,0,119.695313,0,-0.00390625)">
    <stop offset="0" style="stop-color:rgb(25.882353%,52.156863%,92.156863%);stop-opacity:1;"/>
    <stop offset="1" style="stop-color:rgb(18.039216%,78.039216%,100%);stop-opacity:1;"/>
    </linearGradient>
    <linearGradient id="linear1" gradientUnits="userSpaceOnUse" x1="0.696441" y1="0" x2="0.540429" y2="1.084567" gradientTransform="matrix(88.980469,0,0,119.695313,0,-0.00390625)">
    <stop offset="0" style="stop-color:rgb(16.078431%,80.392157%,100%);stop-opacity:1;"/>
    <stop offset="0.378601" style="stop-color:rgb(7.843137%,55.686275%,100%);stop-opacity:1;"/>
    <stop offset="1" style="stop-color:rgb(3.921569%,37.647059%,100%);stop-opacity:1;"/>
    </linearGradient>
    <linearGradient id="linear2" gradientUnits="userSpaceOnUse" x1="0.696908" y1="-0.129744" x2="0.167229" y2="1.173912" gradientTransform="matrix(29.636719,0,0,46.648438,90.125,36.699219)">
    <stop offset="0" style="stop-color:rgb(98.039216%,50.588235%,43.137255%);stop-opacity:1;"/>
    <stop offset="0.414726" style="stop-color:rgb(96.862745%,29.019608%,36.078431%);stop-opacity:1;"/>
    <stop offset="1" style="stop-color:rgb(96.078431%,11.372549%,17.254902%);stop-opacity:1;"/>
    </linearGradient>
    <linearGradient id="linear3" gradientUnits="userSpaceOnUse" x1="0.68128" y1="-0.356906" x2="0.304401" y2="1.149427" gradientTransform="matrix(28.429688,0,0,28.40625,45.9375,45.910156)">
    <stop offset="0" style="stop-color:rgb(98.039216%,55.686275%,49.019608%);stop-opacity:1;"/>
    <stop offset="0.512635" style="stop-color:rgb(96.862745%,29.019608%,36.078431%);stop-opacity:1;"/>
    <stop offset="1" style="stop-color:rgb(96.078431%,11.372549%,17.254902%);stop-opacity:1;"/>
    </linearGradient>
    </defs>
    <g id="surface1">
    <path style=" stroke:none;fill-rule:nonzero;fill:url(#linear0);" d="M 54.773438 2.128906 L 2.121094 54.738281 C -0.707031 57.566406 -0.707031 62.132812 2.121094 64.960938 L 54.773438 117.570312 C 57.605469 120.398438 62.175781 120.398438 65.007812 117.570312 L 87.082031 95.511719 C 89.617188 92.980469 89.617188 88.871094 87.082031 86.339844 C 84.546875 83.808594 80.4375 83.808594 77.902344 86.339844 L 61.167969 103.0625 C 60.460938 103.765625 59.394531 103.765625 58.6875 103.0625 L 16.644531 61.050781 C 15.9375 60.347656 15.9375 59.277344 16.644531 58.574219 L 58.6875 16.5625 C 59.394531 15.859375 60.460938 15.859375 61.167969 16.5625 L 77.902344 33.285156 C 80.4375 35.820312 84.546875 35.820312 87.082031 33.285156 C 89.617188 30.753906 89.617188 26.644531 87.082031 24.113281 L 65.007812 2.058594 C 62.167969 -0.710938 57.59375 -0.6875 54.773438 2.128906 Z M 54.773438 2.128906 "/>
    <path style=" stroke:none;fill-rule:nonzero;fill:url(#linear1);" d="M 54.773438 2.128906 L 2.121094 54.738281 C -0.707031 57.566406 -0.707031 62.132812 2.121094 64.960938 L 54.773438 117.570312 C 57.605469 120.398438 62.175781 120.398438 65.007812 117.570312 L 87.082031 95.511719 C 89.617188 92.980469 89.617188 88.871094 87.082031 86.339844 C 84.546875 83.808594 80.4375 83.808594 77.902344 86.339844 L 61.167969 103.0625 C 60.460938 103.765625 59.394531 103.765625 58.6875 103.0625 L 16.644531 61.050781 C 15.9375 60.347656 15.9375 59.277344 16.644531 58.574219 L 58.6875 16.5625 C 60.441406 15.050781 63.304688 11.988281 67.507812 11.273438 C 70.632812 10.738281 74.046875 11.910156 77.753906 14.789062 C 75.277344 12.3125 71.027344 8.070312 65.007812 2.058594 C 62.167969 -0.710938 57.59375 -0.6875 54.773438 2.128906 Z M 54.773438 2.128906 "/>
    <path style=" stroke:none;fill-rule:nonzero;fill:url(#linear2);" d="M 92.179688 81.449219 C 94.714844 83.980469 98.824219 83.980469 101.359375 81.449219 L 117.640625 65.175781 C 120.472656 62.347656 120.472656 57.78125 117.640625 54.953125 L 101.214844 38.597656 C 98.675781 36.066406 94.5625 36.070312 92.027344 38.605469 C 89.492188 41.140625 89.492188 45.246094 92.027344 47.777344 L 103.121094 58.863281 C 103.828125 59.566406 103.828125 60.636719 103.121094 61.339844 L 92.179688 72.273438 C 89.644531 74.808594 89.644531 78.914062 92.179688 81.449219 Z M 92.179688 81.449219 "/>
    <path style=" stroke:none;fill-rule:nonzero;fill:url(#linear3);" d="M 74.367188 60.113281 C 74.367188 52.269531 68.003906 45.910156 60.152344 45.910156 C 52.300781 45.910156 45.9375 52.269531 45.9375 60.113281 C 45.9375 67.957031 52.300781 74.316406 60.152344 74.316406 C 68.003906 74.316406 74.367188 67.957031 74.367188 60.113281 Z M 74.367188 60.113281 "/>
    </g>
</g>

<!-- social -->

<g id="mail">
    <circle cx="19.2481" cy="18.8683" r="18.8683" fill="currentColor"/>
    <g clip-path="url(#clip0_1_2353)">
    <path d="M31.0404 11.4974V26.2383C31.0404 27.0748 30.4029 27.7123 29.5663 27.7123H28.0922V14.3343L19.2477 20.6876L10.4032 14.3343V27.7123H8.92916C8.09262 27.7123 7.45508 27.0748 7.45508 26.2383V11.4974C7.45508 11.0788 7.6128 10.7103 7.8774 10.4494C8.01521 10.3115 8.17933 10.2027 8.36001 10.1295C8.54069 10.0563 8.73425 10.0202 8.92916 10.0233H9.42077L19.2477 17.1483L29.0747 10.0233H29.5663C29.985 10.0233 30.3535 10.1811 30.6181 10.4494C30.8827 10.7103 31.0404 11.0788 31.0404 11.4974Z" fill="#DBFFFF"/>
    </g>
    <defs>
    <clipPath id="clip0_1_2353">
    <rect width="23.5853" height="23.5853" fill="currentColor" transform="translate(7.45508 7.07556)"/>
    </clipPath>
    </defs>
</g>

<g id="linkedin">
        <ellipse cx="19.3521" cy="18.868" rx="18.8683" ry="18.8683" fill="currentColor"/>
    <path d="M10.0633 28.7051H14.0113V14.0974H10.0633V28.7051ZM12.0373 7.64899C10.7213 7.64899 9.66846 8.70179 9.66846 10.0178C9.66846 11.3338 10.7213 12.3866 12.0373 12.3866C13.3533 12.3866 14.4061 11.3338 14.4061 10.0178C14.4061 8.70179 13.3533 7.64899 12.0373 7.64899ZM20.7229 16.3346V14.0974H16.7749V28.7051H20.7229V21.2039C20.7229 16.9926 26.1185 16.7294 26.1185 21.2039V28.7051H30.0666V19.7563C30.0666 12.6498 22.5653 12.913 20.7229 16.3346Z" fill="#DBFFFF"/>
</g>

<g id="github"> 
        <circle cx="19.214" cy="18.8683" r="18.8683" fill="#DBFFFF"/>
    <g clip-path="url(#clip0_1_2367)">
    <path fill-rule="evenodd" clip-rule="evenodd" d="M19.214 0C8.78925 0 0.345703 8.44354 0.345703 18.8682C0.345703 27.2175 5.74674 34.2695 13.2469 36.7695C14.1903 36.9346 14.5441 36.3686 14.5441 35.8733C14.5441 35.4251 14.5205 33.9393 14.5205 32.3591C9.77983 33.2317 8.55339 31.2034 8.17603 30.142C7.96376 29.5996 7.04393 27.925 6.24203 27.4769C5.58164 27.1231 4.63823 26.2505 6.21845 26.2269C7.70432 26.2033 8.76566 27.5948 9.11944 28.1609C10.8176 31.0147 13.5299 30.2128 14.6148 29.7175C14.7799 28.4911 15.2752 27.6656 15.8177 27.1939C11.6195 26.7222 7.23261 25.0948 7.23261 17.8777C7.23261 15.8257 7.96376 14.1276 9.16661 12.8068C8.97793 12.3351 8.31754 10.4011 9.35529 7.80674C9.35529 7.80674 10.9355 7.31145 14.5441 9.74073C16.0535 9.3162 17.6573 9.10393 19.2611 9.10393C20.8649 9.10393 22.4687 9.3162 23.9782 9.74073C27.5867 7.28786 29.167 7.80674 29.167 7.80674C30.2047 10.4011 29.5443 12.3351 29.3556 12.8068C30.5585 14.1276 31.2896 15.8022 31.2896 17.8777C31.2896 25.1184 26.8792 26.7222 22.681 27.1939C23.365 27.7835 23.9546 28.9156 23.9546 30.6845C23.9546 33.2081 23.931 35.2365 23.931 35.8733C23.931 36.3686 24.2848 36.9582 25.2282 36.7695C28.9738 35.5049 32.2286 33.0976 34.5344 29.8863C36.8403 26.6751 38.0811 22.8216 38.0822 18.8682C38.0822 8.44354 29.6387 0 19.214 0Z" fill="currentColor"/>
    </g>
    <defs>
    <clipPath id="clip0_1_2367">
    <rect width="37.7365" height="37.7365" fill="white" transform="translate(0.345703)"/>
    </clipPath>
    </defs>
</g>

<g id="fileDownload">
    <path fill="none" stroke="currentColor" stroke-linecap="round" stroke-linejoin="round" stroke-width="2" d="M4 17v2a2 2 0 0 0 2 2h12a2 2 0 0 0 2-2v-2M7 11l5 5l5-5m-5-7v12"/>
</g>

</svg> 